<?xml version="1.0" encoding="UTF-8" standalone="no"?>
<!-- Generator: Adobe Illustrator 16.0.3, SVG Export Plug-In . SVG Version: 6.00 Build 0)  -->

<svg
   xmlns:dc="http://purl.org/dc/elements/1.1/"
   xmlns:cc="http://creativecommons.org/ns#"
   xmlns:rdf="http://www.w3.org/1999/02/22-rdf-syntax-ns#"
   xmlns:svg="http://www.w3.org/2000/svg"
   xmlns="http://www.w3.org/2000/svg"
   xmlns:xlink="http://www.w3.org/1999/xlink"
   xmlns:sodipodi="http://sodipodi.sourceforge.net/DTD/sodipodi-0.dtd"
   xmlns:inkscape="http://www.inkscape.org/namespaces/inkscape"
   version="1.1"
   id="Layer_1"
   x="0px"
   y="0px"
   width="226.53497"
   height="63.741928"
   viewBox="0 0 226.53497 63.741928"
   enable-background="new 0 0 630 810"
   xml:space="preserve"
   inkscape:version="0.91 r13725"
   sodipodi:docname="ceed.svg"><metadata
     id="metadata25"><rdf:RDF><cc:Work
         rdf:about=""><dc:format>image/svg+xml</dc:format><dc:type
           rdf:resource="http://purl.org/dc/dcmitype/StillImage" /><dc:title></dc:title></cc:Work></rdf:RDF></metadata><defs
     id="defs23" /><sodipodi:namedview
     pagecolor="#ffffff"
     bordercolor="#666666"
     borderopacity="1"
     objecttolerance="10"
     gridtolerance="10"
     guidetolerance="10"
     inkscape:pageopacity="0"
     inkscape:pageshadow="2"
     inkscape:window-width="1920"
     inkscape:window-height="1057"
     id="namedview21"
     showgrid="false"
     fit-margin-top="0"
     fit-margin-left="0"
     fit-margin-right="0"
     fit-margin-bottom="0"
     inkscape:zoom="1.3361675"
     inkscape:cx="-219.237"
     inkscape:cy="32.034028"
     inkscape:window-x="-8"
     inkscape:window-y="-8"
     inkscape:window-maximized="1"
     inkscape:current-layer="Layer_1" /><polygon
     points="280.172,387.525 280.172,398.841 306.491,398.841 306.491,411.187 280.172,411.187 280.172,423.532 309.578,423.532 309.578,435.877 266.798,435.877 266.798,375.18 308.035,375.18 308.035,387.525 "
     id="polygon3"
     style="fill:#ffffff"
     transform="translate(-203.75003,-373.2921)" /><polygon
     points="334.182,387.525 334.182,398.841 360.5,398.841 360.5,411.187 334.182,411.187 334.182,423.532 363.587,423.532 363.587,435.877 320.808,435.877 320.808,375.18 362.044,375.18 362.044,387.525 "
     id="polygon5"
     style="fill:#ffffff"
     transform="translate(-203.75003,-373.2921)" /><g
     id="g7"
     transform="translate(-203.75003,-373.2921)"><defs
       id="defs9"><rect
         id="SVGID_1_"
         width="630"
         height="810"
         x="0"
         y="0" /></defs><clipPath
       id="SVGID_2_"><use
         xlink:href="#SVGID_1_"
         overflow="visible"
         id="use13"
         style="overflow:visible"
         x="0"
         y="0"
         width="100%"
         height="100%" /></clipPath><path
       clip-path="url(#SVGID_2_)"
       d="m 374.303,375.179 20.061,0 c 4.857,0 9.474,0.544 13.846,1.629 4.372,1.087 8.188,2.844 11.444,5.273 3.259,2.429 5.844,5.587 7.76,9.473 1.913,3.887 2.871,8.602 2.871,14.145 0,4.916 -0.929,9.246 -2.786,12.989 -1.857,3.744 -4.358,6.887 -7.501,9.43 -3.144,2.544 -6.772,4.472 -10.888,5.787 -4.116,1.315 -8.431,1.972 -12.945,1.972 l -21.861,0 0,-60.698 z m 13.374,48.352 6.944,0 c 3.086,0 5.957,-0.313 8.615,-0.943 2.658,-0.628 4.958,-1.672 6.902,-3.129 1.941,-1.457 3.471,-3.372 4.586,-5.742 1.114,-2.371 1.672,-5.273 1.672,-8.702 0,-2.972 -0.558,-5.558 -1.672,-7.759 -1.115,-2.199 -2.615,-4.014 -4.501,-5.444 -1.886,-1.428 -4.103,-2.499 -6.645,-3.215 -2.544,-0.713 -5.216,-1.072 -8.016,-1.072 l -7.887,0 0,36.006 z"
       id="path15"
       inkscape:connector-curvature="0"
       style="fill:#ffffff" /><path
       clip-path="url(#SVGID_2_)"
       d="m 220.146,395.053 c 5.169,-7.923 15.651,-10.744 24.16,-6.218 l 9.122,-2.903 -2.838,-8.912 c -14.431,-7.676 -32.161,-3.098 -41.213,10.06 l 10.769,7.973 z"
       id="path17"
       inkscape:connector-curvature="0"
       style="fill:#e34626" /><path
       clip-path="url(#SVGID_2_)"
       d="m 249.595,417.256 c -0.413,0.476 -0.848,0.932 -1.306,1.363 l 0.01,0.003 c -5.614,5.279 -14.19,6.684 -21.362,2.869 -9.003,-4.789 -12.432,-16.011 -7.643,-25.013 0.263,-0.494 0.548,-0.968 0.848,-1.428 l -10.765,-7.969 -1.898,3.113 c -8.254,15.517 -2.344,34.857 13.173,43.112 13.639,7.254 30.226,3.565 39.648,-7.969 l -10.705,-8.081 z"
       id="path19"
       inkscape:connector-curvature="0"
       style="fill:#ffffff" /></g></svg>