<?xml version="1.0" encoding="UTF-8" standalone="no"?>
<!DOCTYPE svg PUBLIC "-//W3C//DTD SVG 1.1//EN"
 "http://www.w3.org/Graphics/SVG/1.1/DTD/svg11.dtd">
<!-- Generated by graphviz version 2.26.3 (20100126.1600)
 -->
<!-- Title: controllers_diagram Pages: 1 -->
<svg width="1103pt" height="1051pt"
 viewBox="0.00 0.00 1103.00 1051.00" xmlns="http://www.w3.org/2000/svg" xmlns:xlink="http://www.w3.org/1999/xlink">
<g id="graph1" class="graph" transform="scale(1 1) rotate(0) translate(4 1047)">
<title>controllers_diagram</title>
<polygon fill="none" stroke="none" points="-4,5 -4,-1047 1100,-1047 1100,5 -4,5"/>
<!-- _diagram_info -->
<g id="node1" class="node"><title>_diagram_info</title>
<text text-anchor="start" x="589" y="-298.3" font-family="Times Roman,serif" font-size="13.00">Controllers diagram</text>
<text text-anchor="start" x="589" y="-281.3" font-family="Times Roman,serif" font-size="13.00">Date: May 09 2017 &#45; 14:16</text>
<text text-anchor="start" x="589" y="-264.3" font-family="Times Roman,serif" font-size="13.00">Migration version: 20160826210404</text>
<text text-anchor="start" x="589" y="-247.3" font-family="Times Roman,serif" font-size="13.00">Generated by RailRoady 1.5.2</text>
<text text-anchor="start" x="589" y="-230.3" font-family="Times Roman,serif" font-size="13.00">http://railroady.prestonlee.com</text>
</g>
<!-- Admin::SettingsController -->
<g id="node2" class="node"><title>Admin::SettingsController</title>
<polyline fill="none" stroke="black" points="633,-601.5 804,-601.5 "/>
<path fill="none" stroke="black" d="M804,-601.5C810,-601.5 816,-607.5 816,-613.5"/>
<polyline fill="none" stroke="black" points="816,-613.5 816,-889.5 "/>
<path fill="none" stroke="black" d="M816,-889.5C816,-895.5 810,-901.5 804,-901.5"/>
<polyline fill="none" stroke="black" points="804,-901.5 633,-901.5 "/>
<path fill="none" stroke="black" d="M633,-901.5C627,-901.5 621,-895.5 621,-889.5"/>
<polyline fill="none" stroke="black" points="621,-889.5 621,-613.5 "/>
<path fill="none" stroke="black" d="M621,-613.5C621,-607.5 627,-601.5 633,-601.5"/>
<text text-anchor="middle" x="718.5" y="-884.9" font-family="Times Roman,serif" font-size="14.00">Admin::SettingsController</text>
<polyline fill="none" stroke="black" points="621,-875.5 816,-875.5 "/>
<text text-anchor="start" x="629" y="-858.9" font-family="Times Roman,serif" font-size="14.00">add_category</text>
<text text-anchor="start" x="629" y="-840.9" font-family="Times Roman,serif" font-size="14.00">add_equipment</text>
<text text-anchor="start" x="629" y="-822.9" font-family="Times Roman,serif" font-size="14.00">cat_params</text>
<text text-anchor="start" x="629" y="-804.9" font-family="Times Roman,serif" font-size="14.00">equip_params</text>
<text text-anchor="start" x="629" y="-786.9" font-family="Times Roman,serif" font-size="14.00">index</text>
<text text-anchor="start" x="629" y="-768.9" font-family="Times Roman,serif" font-size="14.00">pi_params</text>
<text text-anchor="start" x="629" y="-750.9" font-family="Times Roman,serif" font-size="14.00">remove_category</text>
<text text-anchor="start" x="629" y="-732.9" font-family="Times Roman,serif" font-size="14.00">remove_equipment</text>
<text text-anchor="start" x="629" y="-714.9" font-family="Times Roman,serif" font-size="14.00">remove_pi</text>
<text text-anchor="start" x="629" y="-696.9" font-family="Times Roman,serif" font-size="14.00">rename_category</text>
<text text-anchor="start" x="629" y="-678.9" font-family="Times Roman,serif" font-size="14.00">rename_equipment</text>
<text text-anchor="start" x="629" y="-660.9" font-family="Times Roman,serif" font-size="14.00">submit_pi</text>
<polyline fill="none" stroke="black" points="621,-651.5 816,-651.5 "/>
<polyline fill="none" stroke="black" points="621,-627.5 816,-627.5 "/>
<text text-anchor="start" x="629" y="-610.9" font-family="Times Roman,serif" font-size="14.00">_layout</text>
</g>
<!-- Admin::UsersController -->
<g id="node3" class="node"><title>Admin::UsersController</title>
<polyline fill="none" stroke="black" points="413,-681.5 565,-681.5 "/>
<path fill="none" stroke="black" d="M565,-681.5C571,-681.5 577,-687.5 577,-693.5"/>
<polyline fill="none" stroke="black" points="577,-693.5 577,-933.5 "/>
<path fill="none" stroke="black" d="M577,-933.5C577,-939.5 571,-945.5 565,-945.5"/>
<polyline fill="none" stroke="black" points="565,-945.5 413,-945.5 "/>
<path fill="none" stroke="black" d="M413,-945.5C407,-945.5 401,-939.5 401,-933.5"/>
<polyline fill="none" stroke="black" points="401,-933.5 401,-693.5 "/>
<path fill="none" stroke="black" d="M401,-693.5C401,-687.5 407,-681.5 413,-681.5"/>
<text text-anchor="middle" x="489" y="-928.9" font-family="Times Roman,serif" font-size="14.00">Admin::UsersController</text>
<polyline fill="none" stroke="black" points="401,-919.5 577,-919.5 "/>
<text text-anchor="start" x="409" y="-902.9" font-family="Times Roman,serif" font-size="14.00">bulk_add_certifications</text>
<text text-anchor="start" x="409" y="-884.9" font-family="Times Roman,serif" font-size="14.00">edit</text>
<text text-anchor="start" x="409" y="-866.9" font-family="Times Roman,serif" font-size="14.00">index</text>
<text text-anchor="start" x="409" y="-848.9" font-family="Times Roman,serif" font-size="14.00">search</text>
<text text-anchor="start" x="409" y="-830.9" font-family="Times Roman,serif" font-size="14.00">show</text>
<text text-anchor="start" x="409" y="-812.9" font-family="Times Roman,serif" font-size="14.00">sort_params</text>
<text text-anchor="start" x="409" y="-794.9" font-family="Times Roman,serif" font-size="14.00">update</text>
<polyline fill="none" stroke="black" points="401,-785.5 577,-785.5 "/>
<polyline fill="none" stroke="black" points="401,-761.5 577,-761.5 "/>
<text text-anchor="start" x="409" y="-744.9" font-family="Times Roman,serif" font-size="14.00">_layout</text>
<text text-anchor="start" x="409" y="-726.9" font-family="Times Roman,serif" font-size="14.00">create_certifications</text>
<text text-anchor="start" x="409" y="-708.9" font-family="Times Roman,serif" font-size="14.00">load_user</text>
<text text-anchor="start" x="409" y="-690.9" font-family="Times Roman,serif" font-size="14.00">user_params</text>
</g>
<!-- AdminAreaController -->
<g id="node4" class="node"><title>AdminAreaController</title>
<polyline fill="none" stroke="black" points="373,-81.5 510,-81.5 "/>
<path fill="none" stroke="black" d="M510,-81.5C516,-81.5 522,-87.5 522,-93.5"/>
<polyline fill="none" stroke="black" points="522,-93.5 522,-187.5 "/>
<path fill="none" stroke="black" d="M522,-187.5C522,-193.5 516,-199.5 510,-199.5"/>
<polyline fill="none" stroke="black" points="510,-199.5 373,-199.5 "/>
<path fill="none" stroke="black" d="M373,-199.5C367,-199.5 361,-193.5 361,-187.5"/>
<polyline fill="none" stroke="black" points="361,-187.5 361,-93.5 "/>
<path fill="none" stroke="black" d="M361,-93.5C361,-87.5 367,-81.5 373,-81.5"/>
<text text-anchor="middle" x="441.5" y="-182.9" font-family="Times Roman,serif" font-size="14.00">AdminAreaController</text>
<polyline fill="none" stroke="black" points="361,-173.5 522,-173.5 "/>
<polyline fill="none" stroke="black" points="361,-149.5 522,-149.5 "/>
<polyline fill="none" stroke="black" points="361,-125.5 522,-125.5 "/>
<text text-anchor="start" x="369" y="-108.9" font-family="Times Roman,serif" font-size="14.00">_layout</text>
<text text-anchor="start" x="369" y="-90.9" font-family="Times Roman,serif" font-size="14.00">ensure_admin</text>
</g>
<!-- AdminController -->
<g id="node5" class="node"><title>AdminController</title>
<polyline fill="none" stroke="black" points="53,-781.5 158,-781.5 "/>
<path fill="none" stroke="black" d="M158,-781.5C164,-781.5 170,-787.5 170,-793.5"/>
<polyline fill="none" stroke="black" points="170,-793.5 170,-871.5 "/>
<path fill="none" stroke="black" d="M170,-871.5C170,-877.5 164,-883.5 158,-883.5"/>
<polyline fill="none" stroke="black" points="158,-883.5 53,-883.5 "/>
<path fill="none" stroke="black" d="M53,-883.5C47,-883.5 41,-877.5 41,-871.5"/>
<polyline fill="none" stroke="black" points="41,-871.5 41,-793.5 "/>
<path fill="none" stroke="black" d="M41,-793.5C41,-787.5 47,-781.5 53,-781.5"/>
<text text-anchor="middle" x="105.5" y="-866.9" font-family="Times Roman,serif" font-size="14.00">AdminController</text>
<polyline fill="none" stroke="black" points="41,-857.5 170,-857.5 "/>
<text text-anchor="start" x="49" y="-840.9" font-family="Times Roman,serif" font-size="14.00">index</text>
<polyline fill="none" stroke="black" points="41,-831.5 170,-831.5 "/>
<polyline fill="none" stroke="black" points="41,-807.5 170,-807.5 "/>
<text text-anchor="start" x="49" y="-790.9" font-family="Times Roman,serif" font-size="14.00">_layout</text>
</g>
<!-- ApplicationController -->
<g id="node6" class="node"><title>ApplicationController</title>
<polyline fill="none" stroke="black" points="33,-1.5 170,-1.5 "/>
<path fill="none" stroke="black" d="M170,-1.5C176,-1.5 182,-7.5 182,-13.5"/>
<polyline fill="none" stroke="black" points="182,-13.5 182,-89.5 "/>
<path fill="none" stroke="black" d="M182,-89.5C182,-95.5 176,-101.5 170,-101.5"/>
<polyline fill="none" stroke="black" points="170,-101.5 33,-101.5 "/>
<path fill="none" stroke="black" d="M33,-101.5C27,-101.5 21,-95.5 21,-89.5"/>
<polyline fill="none" stroke="black" points="21,-89.5 21,-13.5 "/>
<path fill="none" stroke="black" d="M21,-13.5C21,-7.5 27,-1.5 33,-1.5"/>
<text text-anchor="middle" x="101.5" y="-84.9" font-family="Times Roman,serif" font-size="14.00">ApplicationController</text>
<polyline fill="none" stroke="black" points="21,-75.5 182,-75.5 "/>
<polyline fill="none" stroke="black" points="21,-51.5 182,-51.5 "/>
<polyline fill="none" stroke="black" points="21,-27.5 182,-27.5 "/>
<text text-anchor="start" x="29" y="-10.9" font-family="Times Roman,serif" font-size="14.00">_layout</text>
</g>
<!-- CommentsController -->
<g id="node7" class="node"><title>CommentsController</title>
<polyline fill="none" stroke="black" points="573,-61.5 708,-61.5 "/>
<path fill="none" stroke="black" d="M708,-61.5C714,-61.5 720,-67.5 720,-73.5"/>
<polyline fill="none" stroke="black" points="720,-73.5 720,-169.5 "/>
<path fill="none" stroke="black" d="M720,-169.5C720,-175.5 714,-181.5 708,-181.5"/>
<polyline fill="none" stroke="black" points="708,-181.5 573,-181.5 "/>
<path fill="none" stroke="black" d="M573,-181.5C567,-181.5 561,-175.5 561,-169.5"/>
<polyline fill="none" stroke="black" points="561,-169.5 561,-73.5 "/>
<path fill="none" stroke="black" d="M561,-73.5C561,-67.5 567,-61.5 573,-61.5"/>
<text text-anchor="middle" x="640.5" y="-164.9" font-family="Times Roman,serif" font-size="14.00">CommentsController</text>
<polyline fill="none" stroke="black" points="561,-155.5 720,-155.5 "/>
<text text-anchor="start" x="569" y="-138.9" font-family="Times Roman,serif" font-size="14.00">create</text>
<polyline fill="none" stroke="black" points="561,-129.5 720,-129.5 "/>
<polyline fill="none" stroke="black" points="561,-105.5 720,-105.5 "/>
<text text-anchor="start" x="569" y="-88.9" font-family="Times Roman,serif" font-size="14.00">_layout</text>
<text text-anchor="start" x="569" y="-70.9" font-family="Times Roman,serif" font-size="14.00">comment_params</text>
</g>
<!-- GettingStartedController -->
<g id="node8" class="node"><title>GettingStartedController</title>
<polyline fill="none" stroke="black" points="873,-601.5 1039,-601.5 "/>
<path fill="none" stroke="black" d="M1039,-601.5C1045,-601.5 1051,-607.5 1051,-613.5"/>
<polyline fill="none" stroke="black" points="1051,-613.5 1051,-709.5 "/>
<path fill="none" stroke="black" d="M1051,-709.5C1051,-715.5 1045,-721.5 1039,-721.5"/>
<polyline fill="none" stroke="black" points="1039,-721.5 873,-721.5 "/>
<path fill="none" stroke="black" d="M873,-721.5C867,-721.5 861,-715.5 861,-709.5"/>
<polyline fill="none" stroke="black" points="861,-709.5 861,-613.5 "/>
<path fill="none" stroke="black" d="M861,-613.5C861,-607.5 867,-601.5 873,-601.5"/>
<text text-anchor="middle" x="956" y="-704.9" font-family="Times Roman,serif" font-size="14.00">GettingStartedController</text>
<polyline fill="none" stroke="black" points="861,-695.5 1051,-695.5 "/>
<text text-anchor="start" x="869" y="-678.9" font-family="Times Roman,serif" font-size="14.00">creating_repository</text>
<text text-anchor="start" x="869" y="-660.9" font-family="Times Roman,serif" font-size="14.00">setting_up_account</text>
<polyline fill="none" stroke="black" points="861,-651.5 1051,-651.5 "/>
<polyline fill="none" stroke="black" points="861,-627.5 1051,-627.5 "/>
<text text-anchor="start" x="869" y="-610.9" font-family="Times Roman,serif" font-size="14.00">_layout</text>
</g>
<!-- GithubController -->
<g id="node9" class="node"><title>GithubController</title>
<polyline fill="none" stroke="black" points="873,-761.5 982,-761.5 "/>
<path fill="none" stroke="black" d="M982,-761.5C988,-761.5 994,-767.5 994,-773.5"/>
<polyline fill="none" stroke="black" points="994,-773.5 994,-923.5 "/>
<path fill="none" stroke="black" d="M994,-923.5C994,-929.5 988,-935.5 982,-935.5"/>
<polyline fill="none" stroke="black" points="982,-935.5 873,-935.5 "/>
<path fill="none" stroke="black" d="M873,-935.5C867,-935.5 861,-929.5 861,-923.5"/>
<polyline fill="none" stroke="black" points="861,-923.5 861,-773.5 "/>
<path fill="none" stroke="black" d="M861,-773.5C861,-767.5 867,-761.5 873,-761.5"/>
<text text-anchor="middle" x="927.5" y="-918.9" font-family="Times Roman,serif" font-size="14.00">GithubController</text>
<polyline fill="none" stroke="black" points="861,-909.5 994,-909.5 "/>
<text text-anchor="start" x="869" y="-892.9" font-family="Times Roman,serif" font-size="14.00">authorize</text>
<text text-anchor="start" x="869" y="-874.9" font-family="Times Roman,serif" font-size="14.00">callback</text>
<text text-anchor="start" x="869" y="-856.9" font-family="Times Roman,serif" font-size="14.00">repositories</text>
<text text-anchor="start" x="869" y="-838.9" font-family="Times Roman,serif" font-size="14.00">unauthorize</text>
<polyline fill="none" stroke="black" points="861,-829.5 994,-829.5 "/>
<polyline fill="none" stroke="black" points="861,-805.5 994,-805.5 "/>
<text text-anchor="start" x="869" y="-788.9" font-family="Times Roman,serif" font-size="14.00">_layout</text>
<text text-anchor="start" x="869" y="-770.9" font-family="Times Roman,serif" font-size="14.00">github</text>
</g>
<!-- HelpController -->
<g id="node10" class="node"><title>HelpController</title>
<polyline fill="none" stroke="black" points="13,-141.5 105,-141.5 "/>
<path fill="none" stroke="black" d="M105,-141.5C111,-141.5 117,-147.5 117,-153.5"/>
<polyline fill="none" stroke="black" points="117,-153.5 117,-231.5 "/>
<path fill="none" stroke="black" d="M117,-231.5C117,-237.5 111,-243.5 105,-243.5"/>
<polyline fill="none" stroke="black" points="105,-243.5 13,-243.5 "/>
<path fill="none" stroke="black" d="M13,-243.5C7,-243.5 1,-237.5 1,-231.5"/>
<polyline fill="none" stroke="black" points="1,-231.5 1,-153.5 "/>
<path fill="none" stroke="black" d="M1,-153.5C1,-147.5 7,-141.5 13,-141.5"/>
<text text-anchor="middle" x="59" y="-226.9" font-family="Times Roman,serif" font-size="14.00">HelpController</text>
<polyline fill="none" stroke="black" points="1,-217.5 117,-217.5 "/>
<text text-anchor="start" x="9" y="-200.9" font-family="Times Roman,serif" font-size="14.00">main</text>
<polyline fill="none" stroke="black" points="1,-191.5 117,-191.5 "/>
<polyline fill="none" stroke="black" points="1,-167.5 117,-167.5 "/>
<text text-anchor="start" x="9" y="-150.9" font-family="Times Roman,serif" font-size="14.00">_layout</text>
</g>
<!-- LicensesController -->
<g id="node11" class="node"><title>LicensesController</title>
<polyline fill="none" stroke="black" points="593,-361.5 907,-361.5 "/>
<path fill="none" stroke="black" d="M907,-361.5C913,-361.5 919,-367.5 919,-373.5"/>
<polyline fill="none" stroke="black" points="919,-373.5 919,-541.5 "/>
<path fill="none" stroke="black" d="M919,-541.5C919,-547.5 913,-553.5 907,-553.5"/>
<polyline fill="none" stroke="black" points="907,-553.5 593,-553.5 "/>
<path fill="none" stroke="black" d="M593,-553.5C587,-553.5 581,-547.5 581,-541.5"/>
<polyline fill="none" stroke="black" points="581,-541.5 581,-373.5 "/>
<path fill="none" stroke="black" d="M581,-373.5C581,-367.5 587,-361.5 593,-361.5"/>
<text text-anchor="middle" x="750" y="-536.9" font-family="Times Roman,serif" font-size="14.00">LicensesController</text>
<polyline fill="none" stroke="black" points="581,-527.5 919,-527.5 "/>
<text text-anchor="start" x="589" y="-510.9" font-family="Times Roman,serif" font-size="14.00">attribution_non_commercial_no_derivatives</text>
<text text-anchor="start" x="589" y="-492.9" font-family="Times Roman,serif" font-size="14.00">attribution_non_commercial_share_alike</text>
<text text-anchor="start" x="589" y="-474.9" font-family="Times Roman,serif" font-size="14.00">common_creative_attribution</text>
<text text-anchor="start" x="589" y="-456.9" font-family="Times Roman,serif" font-size="14.00">common_creative_attribution_no_derivatives</text>
<text text-anchor="start" x="589" y="-438.9" font-family="Times Roman,serif" font-size="14.00">common_creative_attribution_non_commercial</text>
<text text-anchor="start" x="589" y="-420.9" font-family="Times Roman,serif" font-size="14.00">common_creative_attribution_share_alike</text>
<polyline fill="none" stroke="black" points="581,-411.5 919,-411.5 "/>
<polyline fill="none" stroke="black" points="581,-387.5 919,-387.5 "/>
<text text-anchor="start" x="589" y="-370.9" font-family="Times Roman,serif" font-size="14.00">_layout</text>
</g>
<!-- MakesController -->
<g id="node12" class="node"><title>MakesController</title>
<polyline fill="none" stroke="black" points="53,-461.5 157,-461.5 "/>
<path fill="none" stroke="black" d="M157,-461.5C163,-461.5 169,-467.5 169,-473.5"/>
<polyline fill="none" stroke="black" points="169,-473.5 169,-623.5 "/>
<path fill="none" stroke="black" d="M169,-623.5C169,-629.5 163,-635.5 157,-635.5"/>
<polyline fill="none" stroke="black" points="157,-635.5 53,-635.5 "/>
<path fill="none" stroke="black" d="M53,-635.5C47,-635.5 41,-629.5 41,-623.5"/>
<polyline fill="none" stroke="black" points="41,-623.5 41,-473.5 "/>
<path fill="none" stroke="black" d="M41,-473.5C41,-467.5 47,-461.5 53,-461.5"/>
<text text-anchor="middle" x="105" y="-618.9" font-family="Times Roman,serif" font-size="14.00">MakesController</text>
<polyline fill="none" stroke="black" points="41,-609.5 169,-609.5 "/>
<text text-anchor="start" x="49" y="-592.9" font-family="Times Roman,serif" font-size="14.00">create</text>
<text text-anchor="start" x="49" y="-574.9" font-family="Times Roman,serif" font-size="14.00">new</text>
<polyline fill="none" stroke="black" points="41,-565.5 169,-565.5 "/>
<polyline fill="none" stroke="black" points="41,-541.5 169,-541.5 "/>
<text text-anchor="start" x="49" y="-524.9" font-family="Times Roman,serif" font-size="14.00">_layout</text>
<text text-anchor="start" x="49" y="-506.9" font-family="Times Roman,serif" font-size="14.00">copy_categories_and_equipment</text>
<text text-anchor="start" x="49" y="-488.9" font-family="Times Roman,serif" font-size="14.00">create_photos</text>
<text text-anchor="start" x="49" y="-470.9" font-family="Times Roman,serif" font-size="14.00">set_repository</text>
</g>
<!-- PhotosController -->
<g id="node13" class="node"><title>PhotosController</title>
<polyline fill="none" stroke="black" points="973,-321.5 1082,-321.5 "/>
<path fill="none" stroke="black" d="M1082,-321.5C1088,-321.5 1094,-327.5 1094,-333.5"/>
<polyline fill="none" stroke="black" points="1094,-333.5 1094,-427.5 "/>
<path fill="none" stroke="black" d="M1094,-427.5C1094,-433.5 1088,-439.5 1082,-439.5"/>
<polyline fill="none" stroke="black" points="1082,-439.5 973,-439.5 "/>
<path fill="none" stroke="black" d="M973,-439.5C967,-439.5 961,-433.5 961,-427.5"/>
<polyline fill="none" stroke="black" points="961,-427.5 961,-333.5 "/>
<path fill="none" stroke="black" d="M961,-333.5C961,-327.5 967,-321.5 973,-321.5"/>
<text text-anchor="middle" x="1027.5" y="-422.9" font-family="Times Roman,serif" font-size="14.00">PhotosController</text>
<polyline fill="none" stroke="black" points="961,-413.5 1094,-413.5 "/>
<polyline fill="none" stroke="black" points="961,-389.5 1094,-389.5 "/>
<polyline fill="none" stroke="black" points="961,-365.5 1094,-365.5 "/>
<text text-anchor="start" x="969" y="-348.9" font-family="Times Roman,serif" font-size="14.00">_layout</text>
<text text-anchor="start" x="969" y="-330.9" font-family="Times Roman,serif" font-size="14.00">photo_params</text>
</g>
<!-- RepositoriesController -->
<g id="node14" class="node"><title>RepositoriesController</title>
<polyline fill="none" stroke="black" points="393,-241.5 538,-241.5 "/>
<path fill="none" stroke="black" d="M538,-241.5C544,-241.5 550,-247.5 550,-253.5"/>
<polyline fill="none" stroke="black" points="550,-253.5 550,-637.5 "/>
<path fill="none" stroke="black" d="M550,-637.5C550,-643.5 544,-649.5 538,-649.5"/>
<polyline fill="none" stroke="black" points="538,-649.5 393,-649.5 "/>
<path fill="none" stroke="black" d="M393,-649.5C387,-649.5 381,-643.5 381,-637.5"/>
<polyline fill="none" stroke="black" points="381,-637.5 381,-253.5 "/>
<path fill="none" stroke="black" d="M381,-253.5C381,-247.5 387,-241.5 393,-241.5"/>
<text text-anchor="middle" x="465.5" y="-632.9" font-family="Times Roman,serif" font-size="14.00">RepositoriesController</text>
<polyline fill="none" stroke="black" points="381,-623.5 550,-623.5 "/>
<text text-anchor="start" x="389" y="-606.9" font-family="Times Roman,serif" font-size="14.00">add_like</text>
<text text-anchor="start" x="389" y="-588.9" font-family="Times Roman,serif" font-size="14.00">create</text>
<text text-anchor="start" x="389" y="-570.9" font-family="Times Roman,serif" font-size="14.00">destroy</text>
<text text-anchor="start" x="389" y="-552.9" font-family="Times Roman,serif" font-size="14.00">download</text>
<text text-anchor="start" x="389" y="-534.9" font-family="Times Roman,serif" font-size="14.00">download_files</text>
<text text-anchor="start" x="389" y="-516.9" font-family="Times Roman,serif" font-size="14.00">edit</text>
<text text-anchor="start" x="389" y="-498.9" font-family="Times Roman,serif" font-size="14.00">new</text>
<text text-anchor="start" x="389" y="-480.9" font-family="Times Roman,serif" font-size="14.00">show</text>
<text text-anchor="start" x="389" y="-462.9" font-family="Times Roman,serif" font-size="14.00">update</text>
<polyline fill="none" stroke="black" points="381,-453.5 550,-453.5 "/>
<polyline fill="none" stroke="black" points="381,-429.5 550,-429.5 "/>
<text text-anchor="start" x="389" y="-412.9" font-family="Times Roman,serif" font-size="14.00">_layout</text>
<text text-anchor="start" x="389" y="-394.9" font-family="Times Roman,serif" font-size="14.00">comment_filter</text>
<text text-anchor="start" x="389" y="-376.9" font-family="Times Roman,serif" font-size="14.00">create_categories</text>
<text text-anchor="start" x="389" y="-358.9" font-family="Times Roman,serif" font-size="14.00">create_equipments</text>
<text text-anchor="start" x="389" y="-340.9" font-family="Times Roman,serif" font-size="14.00">create_files</text>
<text text-anchor="start" x="389" y="-322.9" font-family="Times Roman,serif" font-size="14.00">create_photos</text>
<text text-anchor="start" x="389" y="-304.9" font-family="Times Roman,serif" font-size="14.00">repository_params</text>
<text text-anchor="start" x="389" y="-286.9" font-family="Times Roman,serif" font-size="14.00">set_repository</text>
<text text-anchor="start" x="389" y="-268.9" font-family="Times Roman,serif" font-size="14.00">update_files</text>
<text text-anchor="start" x="389" y="-250.9" font-family="Times Roman,serif" font-size="14.00">update_photos</text>
</g>
<!-- RfidController -->
<g id="node15" class="node"><title>RfidController</title>
<polyline fill="none" stroke="black" points="13,-281.5 102,-281.5 "/>
<path fill="none" stroke="black" d="M102,-281.5C108,-281.5 114,-287.5 114,-293.5"/>
<polyline fill="none" stroke="black" points="114,-293.5 114,-407.5 "/>
<path fill="none" stroke="black" d="M114,-407.5C114,-413.5 108,-419.5 102,-419.5"/>
<polyline fill="none" stroke="black" points="102,-419.5 13,-419.5 "/>
<path fill="none" stroke="black" d="M13,-419.5C7,-419.5 1,-413.5 1,-407.5"/>
<polyline fill="none" stroke="black" points="1,-407.5 1,-293.5 "/>
<path fill="none" stroke="black" d="M1,-293.5C1,-287.5 7,-281.5 13,-281.5"/>
<text text-anchor="middle" x="57.5" y="-402.9" font-family="Times Roman,serif" font-size="14.00">RfidController</text>
<polyline fill="none" stroke="black" points="1,-393.5 114,-393.5 "/>
<text text-anchor="start" x="9" y="-376.9" font-family="Times Roman,serif" font-size="14.00">card_number</text>
<text text-anchor="start" x="9" y="-358.9" font-family="Times Roman,serif" font-size="14.00">check_session</text>
<text text-anchor="start" x="9" y="-340.9" font-family="Times Roman,serif" font-size="14.00">new_session</text>
<polyline fill="none" stroke="black" points="1,-331.5 114,-331.5 "/>
<polyline fill="none" stroke="black" points="1,-307.5 114,-307.5 "/>
<text text-anchor="start" x="9" y="-290.9" font-family="Times Roman,serif" font-size="14.00">_layout</text>
</g>
<!-- SearchController -->
<g id="node16" class="node"><title>SearchController</title>
<polyline fill="none" stroke="black" points="873,-81.5 982,-81.5 "/>
<path fill="none" stroke="black" d="M982,-81.5C988,-81.5 994,-87.5 994,-93.5"/>
<polyline fill="none" stroke="black" points="994,-93.5 994,-261.5 "/>
<path fill="none" stroke="black" d="M994,-261.5C994,-267.5 988,-273.5 982,-273.5"/>
<polyline fill="none" stroke="black" points="982,-273.5 873,-273.5 "/>
<path fill="none" stroke="black" d="M873,-273.5C867,-273.5 861,-267.5 861,-261.5"/>
<polyline fill="none" stroke="black" points="861,-261.5 861,-93.5 "/>
<path fill="none" stroke="black" d="M861,-93.5C861,-87.5 867,-81.5 873,-81.5"/>
<text text-anchor="middle" x="927.5" y="-256.9" font-family="Times Roman,serif" font-size="14.00">SearchController</text>
<polyline fill="none" stroke="black" points="861,-247.5 994,-247.5 "/>
<text text-anchor="start" x="869" y="-230.9" font-family="Times Roman,serif" font-size="14.00">category</text>
<text text-anchor="start" x="869" y="-212.9" font-family="Times Roman,serif" font-size="14.00">equipment</text>
<text text-anchor="start" x="869" y="-194.9" font-family="Times Roman,serif" font-size="14.00">explore</text>
<text text-anchor="start" x="869" y="-176.9" font-family="Times Roman,serif" font-size="14.00">search</text>
<polyline fill="none" stroke="black" points="861,-167.5 994,-167.5 "/>
<polyline fill="none" stroke="black" points="861,-143.5 994,-143.5 "/>
<text text-anchor="start" x="869" y="-126.9" font-family="Times Roman,serif" font-size="14.00">_layout</text>
<text text-anchor="start" x="869" y="-108.9" font-family="Times Roman,serif" font-size="14.00">photo_hash</text>
<text text-anchor="start" x="869" y="-90.9" font-family="Times Roman,serif" font-size="14.00">sort_order</text>
</g>
<!-- SessionsController -->
<g id="node17" class="node"><title>SessionsController</title>
<polyline fill="none" stroke="black" points="173,-141.5 313,-141.5 "/>
<path fill="none" stroke="black" d="M313,-141.5C319,-141.5 325,-147.5 325,-153.5"/>
<polyline fill="none" stroke="black" points="325,-153.5 325,-357.5 "/>
<path fill="none" stroke="black" d="M325,-357.5C325,-363.5 319,-369.5 313,-369.5"/>
<polyline fill="none" stroke="black" points="313,-369.5 173,-369.5 "/>
<path fill="none" stroke="black" d="M173,-369.5C167,-369.5 161,-363.5 161,-357.5"/>
<polyline fill="none" stroke="black" points="161,-357.5 161,-153.5 "/>
<path fill="none" stroke="black" d="M161,-153.5C161,-147.5 167,-141.5 173,-141.5"/>
<text text-anchor="middle" x="243" y="-352.9" font-family="Times Roman,serif" font-size="14.00">SessionsController</text>
<polyline fill="none" stroke="black" points="161,-343.5 325,-343.5 "/>
<text text-anchor="start" x="169" y="-326.9" font-family="Times Roman,serif" font-size="14.00">disconnect_user</text>
<text text-anchor="start" x="169" y="-308.9" font-family="Times Roman,serif" font-size="14.00">login</text>
<text text-anchor="start" x="169" y="-290.9" font-family="Times Roman,serif" font-size="14.00">login_authentication</text>
<text text-anchor="start" x="169" y="-272.9" font-family="Times Roman,serif" font-size="14.00">logout</text>
<text text-anchor="start" x="169" y="-254.9" font-family="Times Roman,serif" font-size="14.00">session_expiry</text>
<text text-anchor="start" x="169" y="-236.9" font-family="Times Roman,serif" font-size="14.00">signed_in</text>
<text text-anchor="start" x="169" y="-218.9" font-family="Times Roman,serif" font-size="14.00">update_activity_time</text>
<polyline fill="none" stroke="black" points="161,-209.5 325,-209.5 "/>
<polyline fill="none" stroke="black" points="161,-185.5 325,-185.5 "/>
<text text-anchor="start" x="169" y="-168.9" font-family="Times Roman,serif" font-size="14.00">_layout</text>
<text text-anchor="start" x="169" y="-150.9" font-family="Times Roman,serif" font-size="14.00">get_session_time_left</text>
</g>
<!-- SettingsController -->
<g id="node18" class="node"><title>SettingsController</title>
<polyline fill="none" stroke="black" points="33,-921.5 152,-921.5 "/>
<path fill="none" stroke="black" d="M152,-921.5C158,-921.5 164,-927.5 164,-933.5"/>
<polyline fill="none" stroke="black" points="164,-933.5 164,-1029.5 "/>
<path fill="none" stroke="black" d="M164,-1029.5C164,-1035.5 158,-1041.5 152,-1041.5"/>
<polyline fill="none" stroke="black" points="152,-1041.5 33,-1041.5 "/>
<path fill="none" stroke="black" d="M33,-1041.5C27,-1041.5 21,-1035.5 21,-1029.5"/>
<polyline fill="none" stroke="black" points="21,-1029.5 21,-933.5 "/>
<path fill="none" stroke="black" d="M21,-933.5C21,-927.5 27,-921.5 33,-921.5"/>
<text text-anchor="middle" x="92.5" y="-1024.9" font-family="Times Roman,serif" font-size="14.00">SettingsController</text>
<polyline fill="none" stroke="black" points="21,-1015.5 164,-1015.5 "/>
<text text-anchor="start" x="29" y="-998.9" font-family="Times Roman,serif" font-size="14.00">admin</text>
<text text-anchor="start" x="29" y="-980.9" font-family="Times Roman,serif" font-size="14.00">profile</text>
<polyline fill="none" stroke="black" points="21,-971.5 164,-971.5 "/>
<polyline fill="none" stroke="black" points="21,-947.5 164,-947.5 "/>
<text text-anchor="start" x="29" y="-930.9" font-family="Times Roman,serif" font-size="14.00">_layout</text>
</g>
<!-- StaticPagesController -->
<g id="node19" class="node"><title>StaticPagesController</title>
<polyline fill="none" stroke="black" points="213,-741.5 354,-741.5 "/>
<path fill="none" stroke="black" d="M354,-741.5C360,-741.5 366,-747.5 366,-753.5"/>
<polyline fill="none" stroke="black" points="366,-753.5 366,-975.5 "/>
<path fill="none" stroke="black" d="M366,-975.5C366,-981.5 360,-987.5 354,-987.5"/>
<polyline fill="none" stroke="black" points="354,-987.5 213,-987.5 "/>
<path fill="none" stroke="black" d="M213,-987.5C207,-987.5 201,-981.5 201,-975.5"/>
<polyline fill="none" stroke="black" points="201,-975.5 201,-753.5 "/>
<path fill="none" stroke="black" d="M201,-753.5C201,-747.5 207,-741.5 213,-741.5"/>
<text text-anchor="middle" x="283.5" y="-970.9" font-family="Times Roman,serif" font-size="14.00">StaticPagesController</text>
<polyline fill="none" stroke="black" points="201,-961.5 366,-961.5 "/>
<text text-anchor="start" x="209" y="-944.9" font-family="Times Roman,serif" font-size="14.00">about</text>
<text text-anchor="start" x="209" y="-926.9" font-family="Times Roman,serif" font-size="14.00">admin</text>
<text text-anchor="start" x="209" y="-908.9" font-family="Times Roman,serif" font-size="14.00">contact</text>
<text text-anchor="start" x="209" y="-890.9" font-family="Times Roman,serif" font-size="14.00">forgot_password</text>
<text text-anchor="start" x="209" y="-872.9" font-family="Times Roman,serif" font-size="14.00">home</text>
<text text-anchor="start" x="209" y="-854.9" font-family="Times Roman,serif" font-size="14.00">privacy</text>
<text text-anchor="start" x="209" y="-836.9" font-family="Times Roman,serif" font-size="14.00">report_repository</text>
<text text-anchor="start" x="209" y="-818.9" font-family="Times Roman,serif" font-size="14.00">reset_password</text>
<text text-anchor="start" x="209" y="-800.9" font-family="Times Roman,serif" font-size="14.00">terms_of_service</text>
<polyline fill="none" stroke="black" points="201,-791.5 366,-791.5 "/>
<polyline fill="none" stroke="black" points="201,-767.5 366,-767.5 "/>
<text text-anchor="start" x="209" y="-750.9" font-family="Times Roman,serif" font-size="14.00">_layout</text>
</g>
<!-- TemplateController -->
<g id="node20" class="node"><title>TemplateController</title>
<polyline fill="none" stroke="black" points="693,-941.5 817,-941.5 "/>
<path fill="none" stroke="black" d="M817,-941.5C823,-941.5 829,-947.5 829,-953.5"/>
<polyline fill="none" stroke="black" points="829,-953.5 829,-1029.5 "/>
<path fill="none" stroke="black" d="M829,-1029.5C829,-1035.5 823,-1041.5 817,-1041.5"/>
<polyline fill="none" stroke="black" points="817,-1041.5 693,-1041.5 "/>
<path fill="none" stroke="black" d="M693,-1041.5C687,-1041.5 681,-1035.5 681,-1029.5"/>
<polyline fill="none" stroke="black" points="681,-1029.5 681,-953.5 "/>
<path fill="none" stroke="black" d="M681,-953.5C681,-947.5 687,-941.5 693,-941.5"/>
<text text-anchor="middle" x="755" y="-1024.9" font-family="Times Roman,serif" font-size="14.00">TemplateController</text>
<polyline fill="none" stroke="black" points="681,-1015.5 829,-1015.5 "/>
<polyline fill="none" stroke="black" points="681,-991.5 829,-991.5 "/>
<polyline fill="none" stroke="black" points="681,-967.5 829,-967.5 "/>
<text text-anchor="start" x="689" y="-950.9" font-family="Times Roman,serif" font-size="14.00">_layout</text>
</g>
<!-- UsersController -->
<g id="node21" class="node"><title>UsersController</title>
<polyline fill="none" stroke="black" points="213,-401.5 328,-401.5 "/>
<path fill="none" stroke="black" d="M328,-401.5C334,-401.5 340,-407.5 340,-413.5"/>
<polyline fill="none" stroke="black" points="340,-413.5 340,-689.5 "/>
<path fill="none" stroke="black" d="M340,-689.5C340,-695.5 334,-701.5 328,-701.5"/>
<polyline fill="none" stroke="black" points="328,-701.5 213,-701.5 "/>
<path fill="none" stroke="black" d="M213,-701.5C207,-701.5 201,-695.5 201,-689.5"/>
<polyline fill="none" stroke="black" points="201,-689.5 201,-413.5 "/>
<path fill="none" stroke="black" d="M201,-413.5C201,-407.5 207,-401.5 213,-401.5"/>
<text text-anchor="middle" x="270.5" y="-684.9" font-family="Times Roman,serif" font-size="14.00">UsersController</text>
<polyline fill="none" stroke="black" points="201,-675.5 340,-675.5 "/>
<text text-anchor="start" x="209" y="-658.9" font-family="Times Roman,serif" font-size="14.00">additional_info</text>
<text text-anchor="start" x="209" y="-640.9" font-family="Times Roman,serif" font-size="14.00">change_password</text>
<text text-anchor="start" x="209" y="-622.9" font-family="Times Roman,serif" font-size="14.00">create</text>
<text text-anchor="start" x="209" y="-604.9" font-family="Times Roman,serif" font-size="14.00">destroy</text>
<text text-anchor="start" x="209" y="-586.9" font-family="Times Roman,serif" font-size="14.00">likes</text>
<text text-anchor="start" x="209" y="-568.9" font-family="Times Roman,serif" font-size="14.00">new</text>
<text text-anchor="start" x="209" y="-550.9" font-family="Times Roman,serif" font-size="14.00">show</text>
<text text-anchor="start" x="209" y="-532.9" font-family="Times Roman,serif" font-size="14.00">update</text>
<text text-anchor="start" x="209" y="-514.9" font-family="Times Roman,serif" font-size="14.00">vote</text>
<polyline fill="none" stroke="black" points="201,-505.5 340,-505.5 "/>
<polyline fill="none" stroke="black" points="201,-481.5 340,-481.5 "/>
<text text-anchor="start" x="209" y="-464.9" font-family="Times Roman,serif" font-size="14.00">_layout</text>
<text text-anchor="start" x="209" y="-446.9" font-family="Times Roman,serif" font-size="14.00">photo_hash</text>
<text text-anchor="start" x="209" y="-428.9" font-family="Times Roman,serif" font-size="14.00">sort_order</text>
<text text-anchor="start" x="209" y="-410.9" font-family="Times Roman,serif" font-size="14.00">user_params</text>
</g>
</g>
</svg>
