<?xml version="1.0" encoding="UTF-8" standalone="no"?>
<!DOCTYPE svg PUBLIC "-//W3C//DTD SVG 1.1//EN"
 "http://www.w3.org/Graphics/SVG/1.1/DTD/svg11.dtd">
<!-- Generated by graphviz version 2.26.3 (20100126.1600)
 -->
<!-- Title: models_diagram Pages: 1 -->
<svg width="883pt" height="330pt"
 viewBox="0.00 0.00 883.00 330.00" xmlns="http://www.w3.org/2000/svg" xmlns:xlink="http://www.w3.org/1999/xlink">
<g id="graph1" class="graph" transform="scale(1 1) rotate(0) translate(4 326)">
<title>models_diagram</title>
<polygon fill="none" stroke="none" points="-4,5 -4,-326 880,-326 880,5 -4,5"/>
<!-- _diagram_info -->
<g id="node1" class="node"><title>_diagram_info</title>
<text text-anchor="start" x="13" y="-305.8" font-family="Times Roman,serif" font-size="13.00">Models diagram</text>
<text text-anchor="start" x="13" y="-288.8" font-family="Times Roman,serif" font-size="13.00">Date: May 09 2017 &#45; 14:16</text>
<text text-anchor="start" x="13" y="-271.8" font-family="Times Roman,serif" font-size="13.00">Migration version: 20160826210404</text>
<text text-anchor="start" x="13" y="-254.8" font-family="Times Roman,serif" font-size="13.00">Generated by RailRoady 1.5.2</text>
<text text-anchor="start" x="13" y="-237.8" font-family="Times Roman,serif" font-size="13.00">http://railroady.prestonlee.com</text>
</g>
<!-- Category -->
<g id="node2" class="node"><title>Category</title>
<ellipse fill="none" stroke="black" cx="259" cy="-95" rx="56.0679" ry="18.3848"/>
<text text-anchor="middle" x="259" y="-91.4" font-family="Times Roman,serif" font-size="14.00">Category</text>
</g>
<!-- CategoryOption -->
<g id="node3" class="node"><title>CategoryOption</title>
<ellipse fill="none" stroke="black" cx="448" cy="-275" rx="89.0955" ry="18.3848"/>
<text text-anchor="middle" x="448" y="-271.4" font-family="Times Roman,serif" font-size="14.00">CategoryOption</text>
</g>
<!-- Certification -->
<g id="node4" class="node"><title>Certification</title>
<ellipse fill="none" stroke="black" cx="71" cy="-171" rx="70.9184" ry="18.3848"/>
<text text-anchor="middle" x="71" y="-167.4" font-family="Times Roman,serif" font-size="14.00">Certification</text>
</g>
<!-- Comment -->
<g id="node5" class="node"><title>Comment</title>
<ellipse fill="none" stroke="black" cx="127" cy="-95" rx="58.1882" ry="18.3848"/>
<text text-anchor="middle" x="127" y="-91.4" font-family="Times Roman,serif" font-size="14.00">Comment</text>
</g>
<!-- Upvote -->
<g id="node15" class="node"><title>Upvote</title>
<ellipse fill="none" stroke="black" cx="617" cy="-19" rx="46.1672" ry="18.3848"/>
<text text-anchor="middle" x="617" y="-15.4" font-family="Times Roman,serif" font-size="14.00">Upvote</text>
</g>
<!-- Comment&#45;&gt;Upvote -->
<g id="edge2" class="edge"><title>Comment&#45;&gt;Upvote</title>
<path fill="none" stroke="#93cfc6" d="M176.77,-80.0418C182.55,-78.5561 188.385,-77.1683 194,-76 324.621,-48.8225 480.746,-31.6785 561.887,-23.898"/>
<ellipse fill="none" stroke="#93cfc6" cx="172.814" cy="-81.0913" rx="4.00001" ry="4.00001"/>
<polygon fill="#93cfc6" stroke="#93cfc6" points="561.923,-23.8946 572.303,-27.4309 566.901,-23.4228 571.879,-22.951 571.879,-22.951 571.879,-22.951 566.901,-23.4228 571.454,-18.4711 561.923,-23.8946 561.923,-23.8946"/>
</g>
<!-- Equipment -->
<g id="node6" class="node"><title>Equipment</title>
<ellipse fill="none" stroke="black" cx="397" cy="-95" rx="63.8479" ry="18.3848"/>
<text text-anchor="middle" x="397" y="-91.4" font-family="Times Roman,serif" font-size="14.00">Equipment</text>
</g>
<!-- EquipmentOption -->
<g id="node7" class="node"><title>EquipmentOption</title>
<ellipse fill="none" stroke="black" cx="652" cy="-275" rx="96.8736" ry="18.3848"/>
<text text-anchor="middle" x="652" y="-271.4" font-family="Times Roman,serif" font-size="14.00">EquipmentOption</text>
</g>
<!-- LabSession -->
<g id="node8" class="node"><title>LabSession</title>
<ellipse fill="none" stroke="black" cx="264" cy="-171" rx="65.7609" ry="18.3848"/>
<text text-anchor="middle" x="264" y="-167.4" font-family="Times Roman,serif" font-size="14.00">LabSession</text>
</g>
<!-- Like -->
<g id="node9" class="node"><title>Like</title>
<ellipse fill="none" stroke="black" cx="510" cy="-95" rx="31.1127" ry="18.3848"/>
<text text-anchor="middle" x="510" y="-91.4" font-family="Times Roman,serif" font-size="14.00">Like</text>
</g>
<!-- Photo -->
<g id="node10" class="node"><title>Photo</title>
<ellipse fill="none" stroke="black" cx="599" cy="-95" rx="39.8075" ry="18.3848"/>
<text text-anchor="middle" x="599" y="-91.4" font-family="Times Roman,serif" font-size="14.00">Photo</text>
</g>
<!-- PiReader -->
<g id="node11" class="node"><title>PiReader</title>
<ellipse fill="none" stroke="black" cx="821" cy="-275" rx="53.9477" ry="18.3848"/>
<text text-anchor="middle" x="821" y="-271.4" font-family="Times Roman,serif" font-size="14.00">PiReader</text>
</g>
<!-- Repository -->
<g id="node12" class="node"><title>Repository</title>
<ellipse fill="none" stroke="black" cx="411" cy="-171" rx="62.9325" ry="18.3848"/>
<text text-anchor="middle" x="411" y="-167.4" font-family="Times Roman,serif" font-size="14.00">Repository</text>
</g>
<!-- Repository&#45;&gt;Category -->
<g id="edge8" class="edge"><title>Repository&#45;&gt;Category</title>
<path fill="none" stroke="#09f2b8" d="M371.455,-151.227C349.193,-140.097 321.463,-126.232 299.11,-115.055"/>
<ellipse fill="none" stroke="#09f2b8" cx="375.187" cy="-153.093" rx="4.00002" ry="4.00002"/>
<polygon fill="#09f2b8" stroke="#09f2b8" points="298.835,-114.918 291.904,-106.421 294.363,-112.682 289.891,-110.446 289.891,-110.446 289.891,-110.446 294.363,-112.682 287.879,-114.47 298.835,-114.918 298.835,-114.918"/>
</g>
<!-- Repository&#45;&gt;Comment -->
<g id="edge12" class="edge"><title>Repository&#45;&gt;Comment</title>
<path fill="none" stroke="#36f838" d="M356.236,-156.538C350.418,-155.005 344.587,-153.469 339,-152 274.57,-135.056 258.272,-131.533 194,-114 189.429,-112.753 184.687,-111.443 179.935,-110.117"/>
<ellipse fill="none" stroke="#36f838" cx="360.272" cy="-157.602" rx="4.00001" ry="4.00001"/>
<polygon fill="#36f838" stroke="#36f838" points="179.843,-110.092 171.429,-103.059 175.029,-108.742 170.214,-107.392 170.214,-107.392 170.214,-107.392 175.029,-108.742 168.999,-111.725 179.843,-110.092 179.843,-110.092"/>
</g>
<!-- Repository&#45;&gt;Equipment -->
<g id="edge10" class="edge"><title>Repository&#45;&gt;Equipment</title>
<path fill="none" stroke="#1e1edc" d="M406.04,-144.073C404.819,-137.449 403.509,-130.332 402.274,-123.63"/>
<ellipse fill="none" stroke="#1e1edc" cx="406.815" cy="-148.28" rx="4.00001" ry="4.00001"/>
<polygon fill="#1e1edc" stroke="#1e1edc" points="402.233,-123.405 404.846,-112.755 401.327,-118.488 400.421,-113.57 400.421,-113.57 400.421,-113.57 401.327,-118.488 395.995,-114.386 402.233,-123.405 402.233,-123.405"/>
</g>
<!-- Repository&#45;&gt;Like -->
<g id="edge14" class="edge"><title>Repository&#45;&gt;Like</title>
<path fill="none" stroke="#dce6cd" d="M440.691,-148.207C454.02,-137.975 469.644,-125.98 482.681,-115.972"/>
<ellipse fill="none" stroke="#dce6cd" cx="437.134" cy="-150.937" rx="4.00002" ry="4.00002"/>
<polygon fill="#dce6cd" stroke="#dce6cd" points="482.892,-115.811 493.564,-113.291 486.858,-112.766 490.824,-109.721 490.824,-109.721 490.824,-109.721 486.858,-112.766 488.084,-106.152 482.892,-115.811 482.892,-115.811"/>
</g>
<!-- Repository&#45;&gt;Photo -->
<g id="edge4" class="edge"><title>Repository&#45;&gt;Photo</title>
<path fill="none" stroke="#e7d41a" d="M455.833,-152.876C487.328,-140.144 529.071,-123.269 559.351,-111.028"/>
<ellipse fill="none" stroke="#e7d41a" cx="451.851" cy="-154.486" rx="4.00001" ry="4.00001"/>
<polygon fill="#e7d41a" stroke="#e7d41a" points="559.481,-110.976 570.439,-111.4 564.117,-109.102 568.752,-107.228 568.752,-107.228 568.752,-107.228 564.117,-109.102 567.066,-103.056 559.481,-110.976 559.481,-110.976"/>
</g>
<!-- Repository&#45;&gt;Repository -->
<g id="edge16" class="edge"><title>Repository&#45;&gt;Repository</title>
<path fill="none" stroke="#cc600d" d="M477.807,-177.235C486.357,-176.149 492,-174.071 492,-171 492,-168.146 487.127,-166.149 479.576,-165.01"/>
<ellipse fill="none" stroke="#cc600d" cx="473.599" cy="-177.593" rx="4" ry="4"/>
<polygon fill="#cc600d" stroke="#cc600d" points="479.569,-165.01 470.038,-159.587 474.591,-164.538 469.613,-164.067 469.613,-164.067 469.613,-164.067 474.591,-164.538 469.189,-168.547 479.569,-165.01 479.569,-165.01"/>
<text text-anchor="middle" x="514" y="-167.4" font-family="Times Roman,serif" font-size="14.00">makes</text>
</g>
<!-- RepoFile -->
<g id="node13" class="node"><title>RepoFile</title>
<ellipse fill="none" stroke="black" cx="709" cy="-95" rx="51.8276" ry="18.3848"/>
<text text-anchor="middle" x="709" y="-91.4" font-family="Times Roman,serif" font-size="14.00">RepoFile</text>
</g>
<!-- Repository&#45;&gt;RepoFile -->
<g id="edge6" class="edge"><title>Repository&#45;&gt;RepoFile</title>
<path fill="none" stroke="#6bb0ce" d="M469.473,-158.067C517.609,-147.15 587.519,-130.673 648,-114 652.09,-112.872 656.32,-111.658 660.556,-110.407"/>
<ellipse fill="none" stroke="#6bb0ce" cx="465.543" cy="-158.956" rx="4.00001" ry="4.00001"/>
<polygon fill="#6bb0ce" stroke="#6bb0ce" points="660.814,-110.329 671.687,-111.756 665.602,-108.888 670.39,-107.447 670.39,-107.447 670.39,-107.447 665.602,-108.888 669.093,-103.138 660.814,-110.329 660.814,-110.329"/>
</g>
<!-- Rfid -->
<g id="node14" class="node"><title>Rfid</title>
<ellipse fill="none" stroke="black" cx="584" cy="-171" rx="29.9071" ry="18.3848"/>
<text text-anchor="middle" x="584" y="-167.4" font-family="Times Roman,serif" font-size="14.00">Rfid</text>
</g>
<!-- User -->
<g id="node16" class="node"><title>User</title>
<ellipse fill="none" stroke="black" cx="307" cy="-275" rx="33.9411" ry="18.3848"/>
<text text-anchor="middle" x="307" y="-271.4" font-family="Times Roman,serif" font-size="14.00">User</text>
</g>
<!-- User&#45;&gt;Certification -->
<g id="edge26" class="edge"><title>User&#45;&gt;Certification</title>
<path fill="none" stroke="#1a66ab" d="M290.457,-251.064C283.305,-242.476 274.223,-233.551 264,-228 221.236,-204.778 202.522,-224.272 156,-210 140.992,-205.396 125.196,-198.706 111.347,-192.164"/>
<ellipse fill="none" stroke="#1a66ab" cx="293.06" cy="-254.364" rx="4.00002" ry="4.00002"/>
<polygon fill="#1a66ab" stroke="#1a66ab" points="111.104,-192.046 104.067,-183.635 106.604,-189.865 102.105,-187.685 102.105,-187.685 102.105,-187.685 106.604,-189.865 100.142,-191.734 111.104,-192.046 111.104,-192.046"/>
</g>
<!-- User&#45;&gt;Comment -->
<g id="edge22" class="edge"><title>User&#45;&gt;Comment</title>
<path fill="none" stroke="#851930" d="M288.038,-250.985C281.031,-243.053 272.671,-234.583 264,-228 234.238,-205.404 216.826,-214.941 189,-190 167.856,-171.049 150.864,-143.314 140.053,-122.699"/>
<ellipse fill="none" stroke="#851930" cx="290.982" cy="-254.428" rx="4.00002" ry="4.00002"/>
<polygon fill="#851930" stroke="#851930" points="139.913,-122.422 139.403,-111.468 137.651,-117.962 135.39,-113.503 135.39,-113.503 135.39,-113.503 137.651,-117.962 131.376,-115.538 139.913,-122.422 139.913,-122.422"/>
</g>
<!-- User&#45;&gt;LabSession -->
<g id="edge28" class="edge"><title>User&#45;&gt;LabSession</title>
<path fill="none" stroke="#cc7f87" d="M296.399,-249.361C290.119,-234.172 282.152,-214.903 275.69,-199.274"/>
<ellipse fill="none" stroke="#cc7f87" cx="297.982" cy="-253.188" rx="4.00002" ry="4.00002"/>
<polygon fill="#cc7f87" stroke="#cc7f87" points="275.515,-198.849 275.852,-187.889 273.604,-194.229 271.694,-189.608 271.694,-189.608 271.694,-189.608 273.604,-194.229 267.535,-191.328 275.515,-198.849 275.515,-198.849"/>
</g>
<!-- User&#45;&gt;Repository -->
<g id="edge24" class="edge"><title>User&#45;&gt;Repository</title>
<path fill="none" stroke="#e927c6" d="M327.453,-251.925C334.474,-244.198 342.464,-235.616 350,-228 360.829,-217.057 373.173,-205.381 383.911,-195.466"/>
<ellipse fill="none" stroke="#e927c6" cx="324.494" cy="-255.204" rx="4.00002" ry="4.00002"/>
<polygon fill="#e927c6" stroke="#e927c6" points="384.033,-195.354 394.444,-191.908 387.717,-191.973 391.401,-188.592 391.401,-188.592 391.401,-188.592 387.717,-191.973 388.359,-185.277 384.033,-195.354 384.033,-195.354"/>
</g>
<!-- User&#45;&gt;Rfid -->
<g id="edge18" class="edge"><title>User&#45;&gt;Rfid</title>
<path fill="none" stroke="#cc907c" d="M323.95,-250.819C331.061,-242.369 340.007,-233.604 350,-228 427.012,-184.808 461.266,-218.018 545,-190 547.969,-189.007 551.001,-187.835 553.999,-186.569"/>
<ellipse fill="none" stroke="#cc907c" cx="321.38" cy="-254.037" rx="4.00002" ry="4.00002"/>
<ellipse fill="#cc907c" stroke="#cc907c" cx="557.674" cy="-184.917" rx="4.00002" ry="4.00002"/>
</g>
<!-- User&#45;&gt;Upvote -->
<g id="edge20" class="edge"><title>User&#45;&gt;Upvote</title>
<path fill="none" stroke="#f3f2b3" d="M323.466,-250.921C330.609,-242.314 339.703,-233.414 350,-228 404.215,-199.495 564.626,-208.553 623,-190 693.093,-167.722 731.757,-176.824 770,-114 778.782,-99.5738 779.635,-89.8711 770,-76 757.776,-58.4011 706.627,-41.7087 666.793,-30.9902"/>
<ellipse fill="none" stroke="#f3f2b3" cx="320.866" cy="-254.236" rx="4.00002" ry="4.00002"/>
<polygon fill="#f3f2b3" stroke="#f3f2b3" points="666.611,-30.9423 658.085,-24.0452 661.775,-29.6697 656.94,-28.397 656.94,-28.397 656.94,-28.397 661.775,-29.6697 655.795,-32.7488 666.611,-30.9423 666.611,-30.9423"/>
</g>
</g>
</svg>
