<?xml version="1.0" encoding="UTF-8" standalone="no"?>
<!DOCTYPE svg PUBLIC "-//W3C//DTD SVG 1.1//EN"
 "http://www.w3.org/Graphics/SVG/1.1/DTD/svg11.dtd">
<!-- Generated by graphviz version 2.26.3 (20100126.1600)
 -->
<!-- Title: models_diagram Pages: 1 -->
<svg width="2094pt" height="1202pt"
 viewBox="0.00 0.00 2094.00 1202.00" xmlns="http://www.w3.org/2000/svg" xmlns:xlink="http://www.w3.org/1999/xlink">
<g id="graph1" class="graph" transform="scale(1 1) rotate(0) translate(4 1198)">
<title>models_diagram</title>
<polygon fill="none" stroke="none" points="-4,5 -4,-1198 2091,-1198 2091,5 -4,5"/>
<!-- _diagram_info -->
<g id="node1" class="node"><title>_diagram_info</title>
<text text-anchor="start" x="178" y="-1017.8" font-family="Times Roman,serif" font-size="13.00">Models diagram</text>
<text text-anchor="start" x="178" y="-1000.8" font-family="Times Roman,serif" font-size="13.00">Date: May 09 2017 &#45; 14:16</text>
<text text-anchor="start" x="178" y="-983.8" font-family="Times Roman,serif" font-size="13.00">Migration version: 20160826210404</text>
<text text-anchor="start" x="178" y="-966.8" font-family="Times Roman,serif" font-size="13.00">Generated by RailRoady 1.5.2</text>
<text text-anchor="start" x="178" y="-949.8" font-family="Times Roman,serif" font-size="13.00">http://railroady.prestonlee.com</text>
</g>
<!-- Category -->
<g id="node2" class="node"><title>Category</title>
<polyline fill="none" stroke="black" points="357.5,-228 642.5,-228 "/>
<path fill="none" stroke="black" d="M642.5,-228C648.5,-228 654.5,-234 654.5,-240"/>
<polyline fill="none" stroke="black" points="654.5,-240 654.5,-340 "/>
<path fill="none" stroke="black" d="M654.5,-340C654.5,-346 648.5,-352 642.5,-352"/>
<polyline fill="none" stroke="black" points="642.5,-352 357.5,-352 "/>
<path fill="none" stroke="black" d="M357.5,-352C351.5,-352 345.5,-346 345.5,-340"/>
<polyline fill="none" stroke="black" points="345.5,-340 345.5,-240 "/>
<path fill="none" stroke="black" d="M345.5,-240C345.5,-234 351.5,-228 357.5,-228"/>
<text text-anchor="middle" x="500" y="-335.4" font-family="Times Roman,serif" font-size="14.00">Category</text>
<polyline fill="none" stroke="black" points="345.5,-326 654.5,-326 "/>
<text text-anchor="start" x="353.5" y="-309.4" font-family="Times Roman,serif" font-size="14.00">id :integer</text>
<text text-anchor="start" x="353.5" y="-291.4" font-family="Times Roman,serif" font-size="14.00">repository_id :integer</text>
<text text-anchor="start" x="353.5" y="-273.4" font-family="Times Roman,serif" font-size="14.00">name :character varying</text>
<text text-anchor="start" x="353.5" y="-255.4" font-family="Times Roman,serif" font-size="14.00">created_at :timestamp without time zone</text>
<text text-anchor="start" x="353.5" y="-237.4" font-family="Times Roman,serif" font-size="14.00">updated_at :timestamp without time zone</text>
</g>
<!-- CategoryOption -->
<g id="node3" class="node"><title>CategoryOption</title>
<polyline fill="none" stroke="black" points="829.5,-934 1114.5,-934 "/>
<path fill="none" stroke="black" d="M1114.5,-934C1120.5,-934 1126.5,-940 1126.5,-946"/>
<polyline fill="none" stroke="black" points="1126.5,-946 1126.5,-1028 "/>
<path fill="none" stroke="black" d="M1126.5,-1028C1126.5,-1034 1120.5,-1040 1114.5,-1040"/>
<polyline fill="none" stroke="black" points="1114.5,-1040 829.5,-1040 "/>
<path fill="none" stroke="black" d="M829.5,-1040C823.5,-1040 817.5,-1034 817.5,-1028"/>
<polyline fill="none" stroke="black" points="817.5,-1028 817.5,-946 "/>
<path fill="none" stroke="black" d="M817.5,-946C817.5,-940 823.5,-934 829.5,-934"/>
<text text-anchor="middle" x="972" y="-1023.4" font-family="Times Roman,serif" font-size="14.00">CategoryOption</text>
<polyline fill="none" stroke="black" points="817.5,-1014 1126.5,-1014 "/>
<text text-anchor="start" x="825.5" y="-997.4" font-family="Times Roman,serif" font-size="14.00">id :integer</text>
<text text-anchor="start" x="825.5" y="-979.4" font-family="Times Roman,serif" font-size="14.00">name :character varying</text>
<text text-anchor="start" x="825.5" y="-961.4" font-family="Times Roman,serif" font-size="14.00">created_at :timestamp without time zone</text>
<text text-anchor="start" x="825.5" y="-943.4" font-family="Times Roman,serif" font-size="14.00">updated_at :timestamp without time zone</text>
</g>
<!-- Certification -->
<g id="node4" class="node"><title>Certification</title>
<polyline fill="none" stroke="black" points="11.5,-527 296.5,-527 "/>
<path fill="none" stroke="black" d="M296.5,-527C302.5,-527 308.5,-533 308.5,-539"/>
<polyline fill="none" stroke="black" points="308.5,-539 308.5,-639 "/>
<path fill="none" stroke="black" d="M308.5,-639C308.5,-645 302.5,-651 296.5,-651"/>
<polyline fill="none" stroke="black" points="296.5,-651 11.5,-651 "/>
<path fill="none" stroke="black" d="M11.5,-651C5.5,-651 -0.5,-645 -0.5,-639"/>
<polyline fill="none" stroke="black" points="-0.5,-639 -0.5,-539 "/>
<path fill="none" stroke="black" d="M-0.5,-539C-0.5,-533 5.5,-527 11.5,-527"/>
<text text-anchor="middle" x="154" y="-634.4" font-family="Times Roman,serif" font-size="14.00">Certification</text>
<polyline fill="none" stroke="black" points="-0.5,-625 308.5,-625 "/>
<text text-anchor="start" x="7.5" y="-608.4" font-family="Times Roman,serif" font-size="14.00">id :integer</text>
<text text-anchor="start" x="7.5" y="-590.4" font-family="Times Roman,serif" font-size="14.00">user_id :integer</text>
<text text-anchor="start" x="7.5" y="-572.4" font-family="Times Roman,serif" font-size="14.00">name :character varying</text>
<text text-anchor="start" x="7.5" y="-554.4" font-family="Times Roman,serif" font-size="14.00">created_at :timestamp without time zone</text>
<text text-anchor="start" x="7.5" y="-536.4" font-family="Times Roman,serif" font-size="14.00">updated_at :timestamp without time zone</text>
</g>
<!-- Comment -->
<g id="node5" class="node"><title>Comment</title>
<polyline fill="none" stroke="black" points="31.5,-201 316.5,-201 "/>
<path fill="none" stroke="black" d="M316.5,-201C322.5,-201 328.5,-207 328.5,-213"/>
<polyline fill="none" stroke="black" points="328.5,-213 328.5,-367 "/>
<path fill="none" stroke="black" d="M328.5,-367C328.5,-373 322.5,-379 316.5,-379"/>
<polyline fill="none" stroke="black" points="316.5,-379 31.5,-379 "/>
<path fill="none" stroke="black" d="M31.5,-379C25.5,-379 19.5,-373 19.5,-367"/>
<polyline fill="none" stroke="black" points="19.5,-367 19.5,-213 "/>
<path fill="none" stroke="black" d="M19.5,-213C19.5,-207 25.5,-201 31.5,-201"/>
<text text-anchor="middle" x="174" y="-362.4" font-family="Times Roman,serif" font-size="14.00">Comment</text>
<polyline fill="none" stroke="black" points="19.5,-353 328.5,-353 "/>
<text text-anchor="start" x="27.5" y="-336.4" font-family="Times Roman,serif" font-size="14.00">id :integer</text>
<text text-anchor="start" x="27.5" y="-318.4" font-family="Times Roman,serif" font-size="14.00">user_id :integer</text>
<text text-anchor="start" x="27.5" y="-300.4" font-family="Times Roman,serif" font-size="14.00">repository_id :integer</text>
<text text-anchor="start" x="27.5" y="-282.4" font-family="Times Roman,serif" font-size="14.00">content :text</text>
<text text-anchor="start" x="27.5" y="-264.4" font-family="Times Roman,serif" font-size="14.00">upvote :integer</text>
<text text-anchor="start" x="27.5" y="-246.4" font-family="Times Roman,serif" font-size="14.00">created_at :timestamp without time zone</text>
<text text-anchor="start" x="27.5" y="-228.4" font-family="Times Roman,serif" font-size="14.00">updated_at :timestamp without time zone</text>
<text text-anchor="start" x="27.5" y="-210.4" font-family="Times Roman,serif" font-size="14.00">username :character varying</text>
</g>
<!-- Upvote -->
<g id="node15" class="node"><title>Upvote</title>
<polyline fill="none" stroke="black" points="1442.5,-1 1727.5,-1 "/>
<path fill="none" stroke="black" d="M1727.5,-1C1733.5,-1 1739.5,-7 1739.5,-13"/>
<polyline fill="none" stroke="black" points="1739.5,-13 1739.5,-131 "/>
<path fill="none" stroke="black" d="M1739.5,-131C1739.5,-137 1733.5,-143 1727.5,-143"/>
<polyline fill="none" stroke="black" points="1727.5,-143 1442.5,-143 "/>
<path fill="none" stroke="black" d="M1442.5,-143C1436.5,-143 1430.5,-137 1430.5,-131"/>
<polyline fill="none" stroke="black" points="1430.5,-131 1430.5,-13 "/>
<path fill="none" stroke="black" d="M1430.5,-13C1430.5,-7 1436.5,-1 1442.5,-1"/>
<text text-anchor="middle" x="1585" y="-126.4" font-family="Times Roman,serif" font-size="14.00">Upvote</text>
<polyline fill="none" stroke="black" points="1430.5,-117 1739.5,-117 "/>
<text text-anchor="start" x="1438.5" y="-100.4" font-family="Times Roman,serif" font-size="14.00">id :integer</text>
<text text-anchor="start" x="1438.5" y="-82.4" font-family="Times Roman,serif" font-size="14.00">user_id :integer</text>
<text text-anchor="start" x="1438.5" y="-64.4" font-family="Times Roman,serif" font-size="14.00">comment_id :integer</text>
<text text-anchor="start" x="1438.5" y="-46.4" font-family="Times Roman,serif" font-size="14.00">created_at :timestamp without time zone</text>
<text text-anchor="start" x="1438.5" y="-28.4" font-family="Times Roman,serif" font-size="14.00">updated_at :timestamp without time zone</text>
<text text-anchor="start" x="1438.5" y="-10.4" font-family="Times Roman,serif" font-size="14.00">downvote :boolean</text>
</g>
<!-- Comment&#45;&gt;Upvote -->
<g id="edge2" class="edge"><title>Comment&#45;&gt;Upvote</title>
<path fill="none" stroke="#356a7b" d="M301.88,-197.152C313.406,-191.311 325.192,-186.131 337,-182 532.544,-113.589 1128.09,-86.0818 1420.07,-76.4836"/>
<ellipse fill="none" stroke="#356a7b" cx="298.287" cy="-199.023" rx="4.00002" ry="4.00002"/>
<polygon fill="#356a7b" stroke="#356a7b" points="1420.34,-76.4751 1430.48,-80.6473 1425.33,-76.3124 1430.33,-76.1497 1430.33,-76.1497 1430.33,-76.1497 1425.33,-76.3124 1430.19,-71.652 1420.34,-76.4751 1420.34,-76.4751"/>
</g>
<!-- Equipment -->
<g id="node6" class="node"><title>Equipment</title>
<polyline fill="none" stroke="black" points="683.5,-228 968.5,-228 "/>
<path fill="none" stroke="black" d="M968.5,-228C974.5,-228 980.5,-234 980.5,-240"/>
<polyline fill="none" stroke="black" points="980.5,-240 980.5,-340 "/>
<path fill="none" stroke="black" d="M980.5,-340C980.5,-346 974.5,-352 968.5,-352"/>
<polyline fill="none" stroke="black" points="968.5,-352 683.5,-352 "/>
<path fill="none" stroke="black" d="M683.5,-352C677.5,-352 671.5,-346 671.5,-340"/>
<polyline fill="none" stroke="black" points="671.5,-340 671.5,-240 "/>
<path fill="none" stroke="black" d="M671.5,-240C671.5,-234 677.5,-228 683.5,-228"/>
<text text-anchor="middle" x="826" y="-335.4" font-family="Times Roman,serif" font-size="14.00">Equipment</text>
<polyline fill="none" stroke="black" points="671.5,-326 980.5,-326 "/>
<text text-anchor="start" x="679.5" y="-309.4" font-family="Times Roman,serif" font-size="14.00">id :integer</text>
<text text-anchor="start" x="679.5" y="-291.4" font-family="Times Roman,serif" font-size="14.00">repository_id :integer</text>
<text text-anchor="start" x="679.5" y="-273.4" font-family="Times Roman,serif" font-size="14.00">name :character varying</text>
<text text-anchor="start" x="679.5" y="-255.4" font-family="Times Roman,serif" font-size="14.00">created_at :timestamp without time zone</text>
<text text-anchor="start" x="679.5" y="-237.4" font-family="Times Roman,serif" font-size="14.00">updated_at :timestamp without time zone</text>
</g>
<!-- EquipmentOption -->
<g id="node7" class="node"><title>EquipmentOption</title>
<polyline fill="none" stroke="black" points="1155.5,-934 1440.5,-934 "/>
<path fill="none" stroke="black" d="M1440.5,-934C1446.5,-934 1452.5,-940 1452.5,-946"/>
<polyline fill="none" stroke="black" points="1452.5,-946 1452.5,-1028 "/>
<path fill="none" stroke="black" d="M1452.5,-1028C1452.5,-1034 1446.5,-1040 1440.5,-1040"/>
<polyline fill="none" stroke="black" points="1440.5,-1040 1155.5,-1040 "/>
<path fill="none" stroke="black" d="M1155.5,-1040C1149.5,-1040 1143.5,-1034 1143.5,-1028"/>
<polyline fill="none" stroke="black" points="1143.5,-1028 1143.5,-946 "/>
<path fill="none" stroke="black" d="M1143.5,-946C1143.5,-940 1149.5,-934 1155.5,-934"/>
<text text-anchor="middle" x="1298" y="-1023.4" font-family="Times Roman,serif" font-size="14.00">EquipmentOption</text>
<polyline fill="none" stroke="black" points="1143.5,-1014 1452.5,-1014 "/>
<text text-anchor="start" x="1151.5" y="-997.4" font-family="Times Roman,serif" font-size="14.00">id :integer</text>
<text text-anchor="start" x="1151.5" y="-979.4" font-family="Times Roman,serif" font-size="14.00">name :character varying</text>
<text text-anchor="start" x="1151.5" y="-961.4" font-family="Times Roman,serif" font-size="14.00">created_at :timestamp without time zone</text>
<text text-anchor="start" x="1151.5" y="-943.4" font-family="Times Roman,serif" font-size="14.00">updated_at :timestamp without time zone</text>
</g>
<!-- LabSession -->
<g id="node8" class="node"><title>LabSession</title>
<polyline fill="none" stroke="black" points="376,-509 680,-509 "/>
<path fill="none" stroke="black" d="M680,-509C686,-509 692,-515 692,-521"/>
<polyline fill="none" stroke="black" points="692,-521 692,-657 "/>
<path fill="none" stroke="black" d="M692,-657C692,-663 686,-669 680,-669"/>
<polyline fill="none" stroke="black" points="680,-669 376,-669 "/>
<path fill="none" stroke="black" d="M376,-669C370,-669 364,-663 364,-657"/>
<polyline fill="none" stroke="black" points="364,-657 364,-521 "/>
<path fill="none" stroke="black" d="M364,-521C364,-515 370,-509 376,-509"/>
<text text-anchor="middle" x="528" y="-652.4" font-family="Times Roman,serif" font-size="14.00">LabSession</text>
<polyline fill="none" stroke="black" points="364,-643 692,-643 "/>
<text text-anchor="start" x="372" y="-626.4" font-family="Times Roman,serif" font-size="14.00">id :integer</text>
<text text-anchor="start" x="372" y="-608.4" font-family="Times Roman,serif" font-size="14.00">user_id :integer</text>
<text text-anchor="start" x="372" y="-590.4" font-family="Times Roman,serif" font-size="14.00">sign_in_time :timestamp without time zone</text>
<text text-anchor="start" x="372" y="-572.4" font-family="Times Roman,serif" font-size="14.00">sign_out_time :timestamp without time zone</text>
<text text-anchor="start" x="372" y="-554.4" font-family="Times Roman,serif" font-size="14.00">created_at :timestamp without time zone</text>
<text text-anchor="start" x="372" y="-536.4" font-family="Times Roman,serif" font-size="14.00">updated_at :timestamp without time zone</text>
<text text-anchor="start" x="372" y="-518.4" font-family="Times Roman,serif" font-size="14.00">mac_address :character varying</text>
</g>
<!-- Like -->
<g id="node9" class="node"><title>Like</title>
<polyline fill="none" stroke="black" points="1009.5,-228 1294.5,-228 "/>
<path fill="none" stroke="black" d="M1294.5,-228C1300.5,-228 1306.5,-234 1306.5,-240"/>
<polyline fill="none" stroke="black" points="1306.5,-240 1306.5,-340 "/>
<path fill="none" stroke="black" d="M1306.5,-340C1306.5,-346 1300.5,-352 1294.5,-352"/>
<polyline fill="none" stroke="black" points="1294.5,-352 1009.5,-352 "/>
<path fill="none" stroke="black" d="M1009.5,-352C1003.5,-352 997.5,-346 997.5,-340"/>
<polyline fill="none" stroke="black" points="997.5,-340 997.5,-240 "/>
<path fill="none" stroke="black" d="M997.5,-240C997.5,-234 1003.5,-228 1009.5,-228"/>
<text text-anchor="middle" x="1152" y="-335.4" font-family="Times Roman,serif" font-size="14.00">Like</text>
<polyline fill="none" stroke="black" points="997.5,-326 1306.5,-326 "/>
<text text-anchor="start" x="1005.5" y="-309.4" font-family="Times Roman,serif" font-size="14.00">id :integer</text>
<text text-anchor="start" x="1005.5" y="-291.4" font-family="Times Roman,serif" font-size="14.00">user_id :integer</text>
<text text-anchor="start" x="1005.5" y="-273.4" font-family="Times Roman,serif" font-size="14.00">repository_id :integer</text>
<text text-anchor="start" x="1005.5" y="-255.4" font-family="Times Roman,serif" font-size="14.00">created_at :timestamp without time zone</text>
<text text-anchor="start" x="1005.5" y="-237.4" font-family="Times Roman,serif" font-size="14.00">updated_at :timestamp without time zone</text>
</g>
<!-- Photo -->
<g id="node10" class="node"><title>Photo</title>
<polyline fill="none" stroke="black" points="1336,-183 1670,-183 "/>
<path fill="none" stroke="black" d="M1670,-183C1676,-183 1682,-189 1682,-195"/>
<polyline fill="none" stroke="black" points="1682,-195 1682,-385 "/>
<path fill="none" stroke="black" d="M1682,-385C1682,-391 1676,-397 1670,-397"/>
<polyline fill="none" stroke="black" points="1670,-397 1336,-397 "/>
<path fill="none" stroke="black" d="M1336,-397C1330,-397 1324,-391 1324,-385"/>
<polyline fill="none" stroke="black" points="1324,-385 1324,-195 "/>
<path fill="none" stroke="black" d="M1324,-195C1324,-189 1330,-183 1336,-183"/>
<text text-anchor="middle" x="1503" y="-380.4" font-family="Times Roman,serif" font-size="14.00">Photo</text>
<polyline fill="none" stroke="black" points="1324,-371 1682,-371 "/>
<text text-anchor="start" x="1332" y="-354.4" font-family="Times Roman,serif" font-size="14.00">id :integer</text>
<text text-anchor="start" x="1332" y="-336.4" font-family="Times Roman,serif" font-size="14.00">repository_id :integer</text>
<text text-anchor="start" x="1332" y="-318.4" font-family="Times Roman,serif" font-size="14.00">created_at :timestamp without time zone</text>
<text text-anchor="start" x="1332" y="-300.4" font-family="Times Roman,serif" font-size="14.00">updated_at :timestamp without time zone</text>
<text text-anchor="start" x="1332" y="-282.4" font-family="Times Roman,serif" font-size="14.00">image_file_name :character varying</text>
<text text-anchor="start" x="1332" y="-264.4" font-family="Times Roman,serif" font-size="14.00">image_content_type :character varying</text>
<text text-anchor="start" x="1332" y="-246.4" font-family="Times Roman,serif" font-size="14.00">image_file_size :integer</text>
<text text-anchor="start" x="1332" y="-228.4" font-family="Times Roman,serif" font-size="14.00">image_updated_at :timestamp without time zone</text>
<text text-anchor="start" x="1332" y="-210.4" font-family="Times Roman,serif" font-size="14.00">height :integer</text>
<text text-anchor="start" x="1332" y="-192.4" font-family="Times Roman,serif" font-size="14.00">width :integer</text>
</g>
<!-- PiReader -->
<g id="node11" class="node"><title>PiReader</title>
<polyline fill="none" stroke="black" points="1481.5,-925 1766.5,-925 "/>
<path fill="none" stroke="black" d="M1766.5,-925C1772.5,-925 1778.5,-931 1778.5,-937"/>
<polyline fill="none" stroke="black" points="1778.5,-937 1778.5,-1037 "/>
<path fill="none" stroke="black" d="M1778.5,-1037C1778.5,-1043 1772.5,-1049 1766.5,-1049"/>
<polyline fill="none" stroke="black" points="1766.5,-1049 1481.5,-1049 "/>
<path fill="none" stroke="black" d="M1481.5,-1049C1475.5,-1049 1469.5,-1043 1469.5,-1037"/>
<polyline fill="none" stroke="black" points="1469.5,-1037 1469.5,-937 "/>
<path fill="none" stroke="black" d="M1469.5,-937C1469.5,-931 1475.5,-925 1481.5,-925"/>
<text text-anchor="middle" x="1624" y="-1032.4" font-family="Times Roman,serif" font-size="14.00">PiReader</text>
<polyline fill="none" stroke="black" points="1469.5,-1023 1778.5,-1023 "/>
<text text-anchor="start" x="1477.5" y="-1006.4" font-family="Times Roman,serif" font-size="14.00">id :integer</text>
<text text-anchor="start" x="1477.5" y="-988.4" font-family="Times Roman,serif" font-size="14.00">pi_mac_address :character varying</text>
<text text-anchor="start" x="1477.5" y="-970.4" font-family="Times Roman,serif" font-size="14.00">pi_location :character varying</text>
<text text-anchor="start" x="1477.5" y="-952.4" font-family="Times Roman,serif" font-size="14.00">created_at :timestamp without time zone</text>
<text text-anchor="start" x="1477.5" y="-934.4" font-family="Times Roman,serif" font-size="14.00">updated_at :timestamp without time zone</text>
</g>
<!-- Repository -->
<g id="node12" class="node"><title>Repository</title>
<polyline fill="none" stroke="black" points="721.5,-437 1006.5,-437 "/>
<path fill="none" stroke="black" d="M1006.5,-437C1012.5,-437 1018.5,-443 1018.5,-449"/>
<polyline fill="none" stroke="black" points="1018.5,-449 1018.5,-729 "/>
<path fill="none" stroke="black" d="M1018.5,-729C1018.5,-735 1012.5,-741 1006.5,-741"/>
<polyline fill="none" stroke="black" points="1006.5,-741 721.5,-741 "/>
<path fill="none" stroke="black" d="M721.5,-741C715.5,-741 709.5,-735 709.5,-729"/>
<polyline fill="none" stroke="black" points="709.5,-729 709.5,-449 "/>
<path fill="none" stroke="black" d="M709.5,-449C709.5,-443 715.5,-437 721.5,-437"/>
<text text-anchor="middle" x="864" y="-724.4" font-family="Times Roman,serif" font-size="14.00">Repository</text>
<polyline fill="none" stroke="black" points="709.5,-715 1018.5,-715 "/>
<text text-anchor="start" x="717.5" y="-698.4" font-family="Times Roman,serif" font-size="14.00">id :integer</text>
<text text-anchor="start" x="717.5" y="-680.4" font-family="Times Roman,serif" font-size="14.00">user_id :integer</text>
<text text-anchor="start" x="717.5" y="-662.4" font-family="Times Roman,serif" font-size="14.00">title :character varying</text>
<text text-anchor="start" x="717.5" y="-644.4" font-family="Times Roman,serif" font-size="14.00">description :character varying</text>
<text text-anchor="start" x="717.5" y="-626.4" font-family="Times Roman,serif" font-size="14.00">created_at :timestamp without time zone</text>
<text text-anchor="start" x="717.5" y="-608.4" font-family="Times Roman,serif" font-size="14.00">updated_at :timestamp without time zone</text>
<text text-anchor="start" x="717.5" y="-590.4" font-family="Times Roman,serif" font-size="14.00">category :character varying</text>
<text text-anchor="start" x="717.5" y="-572.4" font-family="Times Roman,serif" font-size="14.00">license :character varying</text>
<text text-anchor="start" x="717.5" y="-554.4" font-family="Times Roman,serif" font-size="14.00">github :character varying</text>
<text text-anchor="start" x="717.5" y="-536.4" font-family="Times Roman,serif" font-size="14.00">github_url :character varying</text>
<text text-anchor="start" x="717.5" y="-518.4" font-family="Times Roman,serif" font-size="14.00">like :integer</text>
<text text-anchor="start" x="717.5" y="-500.4" font-family="Times Roman,serif" font-size="14.00">user_username :character varying</text>
<text text-anchor="start" x="717.5" y="-482.4" font-family="Times Roman,serif" font-size="14.00">make_id :integer</text>
<text text-anchor="start" x="717.5" y="-464.4" font-family="Times Roman,serif" font-size="14.00">make :integer</text>
<text text-anchor="start" x="717.5" y="-446.4" font-family="Times Roman,serif" font-size="14.00">slug :character varying</text>
</g>
<!-- Repository&#45;&gt;Category -->
<g id="edge8" class="edge"><title>Repository&#45;&gt;Category</title>
<path fill="none" stroke="#de59a9" d="M702.768,-437.466C702.178,-436.975 701.589,-436.487 701,-436 668.751,-409.33 632.074,-381.904 598.958,-358.126"/>
<ellipse fill="none" stroke="#de59a9" cx="706.04" cy="-440.204" rx="4.00002" ry="4.00002"/>
<polygon fill="#de59a9" stroke="#de59a9" points="598.753,-357.98 593.238,-348.502 594.687,-355.071 590.62,-352.162 590.62,-352.162 590.62,-352.162 594.687,-355.071 588.002,-355.822 598.753,-357.98 598.753,-357.98"/>
</g>
<!-- Repository&#45;&gt;Comment -->
<g id="edge12" class="edge"><title>Repository&#45;&gt;Comment</title>
<path fill="none" stroke="#b3a6b9" d="M702.058,-436.487C701.706,-436.324 701.353,-436.161 701,-436 553.075,-368.357 490.095,-452.948 337,-398 326.017,-394.058 315.044,-389.227 304.278,-383.818"/>
<ellipse fill="none" stroke="#b3a6b9" cx="705.822" cy="-438.322" rx="4.00002" ry="4.00002"/>
<polygon fill="#b3a6b9" stroke="#b3a6b9" points="304.159,-383.756 297.362,-375.152 299.723,-381.45 295.286,-379.144 295.286,-379.144 295.286,-379.144 299.723,-381.45 293.211,-383.137 304.159,-383.756 304.159,-383.756"/>
</g>
<!-- Repository&#45;&gt;Equipment -->
<g id="edge10" class="edge"><title>Repository&#45;&gt;Equipment</title>
<path fill="none" stroke="#6d1ebc" d="M843.639,-428.791C840.676,-405.477 837.757,-382.513 835.173,-362.181"/>
<ellipse fill="none" stroke="#6d1ebc" cx="844.162" cy="-432.904" rx="4.00001" ry="4.00001"/>
<polygon fill="#6d1ebc" stroke="#6d1ebc" points="835.155,-362.032 838.358,-351.544 834.524,-357.072 833.894,-352.112 833.894,-352.112 833.894,-352.112 834.524,-357.072 829.43,-352.679 835.155,-362.032 835.155,-362.032"/>
</g>
<!-- Repository&#45;&gt;Like -->
<g id="edge14" class="edge"><title>Repository&#45;&gt;Like</title>
<path fill="none" stroke="#96643e" d="M1016.29,-430.897C1040.5,-405.762 1064.39,-380.951 1085.23,-359.321"/>
<ellipse fill="none" stroke="#96643e" cx="1013.31" cy="-433.991" rx="4.00002" ry="4.00002"/>
<polygon fill="#96643e" stroke="#96643e" points="1085.24,-359.314 1095.41,-355.234 1088.7,-355.713 1092.17,-352.112 1092.17,-352.112 1092.17,-352.112 1088.7,-355.713 1088.93,-348.99 1085.24,-359.314 1085.24,-359.314"/>
</g>
<!-- Repository&#45;&gt;Photo -->
<g id="edge4" class="edge"><title>Repository&#45;&gt;Photo</title>
<path fill="none" stroke="#e57090" d="M1025.62,-467.399C1046.25,-455.439 1067.63,-444.58 1089,-436 1180.56,-399.229 1216.83,-430.278 1314.17,-398.049"/>
<ellipse fill="none" stroke="#e57090" cx="1022.11" cy="-469.467" rx="4.00002" ry="4.00002"/>
<polygon fill="#e57090" stroke="#e57090" points="1314.34,-397.993 1325.26,-398.981 1319.06,-396.36 1323.79,-394.728 1323.79,-394.728 1323.79,-394.728 1319.06,-396.36 1322.32,-390.475 1314.34,-397.993 1314.34,-397.993"/>
</g>
<!-- Repository&#45;&gt;Repository -->
<g id="edge16" class="edge"><title>Repository&#45;&gt;Repository</title>
<path fill="none" stroke="#d164a3" d="M1025.43,-608.363C1032.12,-603.363 1036,-596.909 1036,-589 1036,-581.737 1032.73,-575.7 1027.01,-570.891"/>
<ellipse fill="none" stroke="#d164a3" cx="1021.95" cy="-610.472" rx="4.00002" ry="4.00002"/>
<polygon fill="#d164a3" stroke="#d164a3" points="1026.95,-570.85 1020.96,-561.666 1022.74,-568.153 1018.53,-565.455 1018.53,-565.455 1018.53,-565.455 1022.74,-568.153 1016.1,-569.243 1026.95,-570.85 1026.95,-570.85"/>
<text text-anchor="middle" x="1058" y="-585.4" font-family="Times Roman,serif" font-size="14.00">makes</text>
</g>
<!-- RepoFile -->
<g id="node13" class="node"><title>RepoFile</title>
<polyline fill="none" stroke="black" points="1711.5,-201 2024.5,-201 "/>
<path fill="none" stroke="black" d="M2024.5,-201C2030.5,-201 2036.5,-207 2036.5,-213"/>
<polyline fill="none" stroke="black" points="2036.5,-213 2036.5,-367 "/>
<path fill="none" stroke="black" d="M2036.5,-367C2036.5,-373 2030.5,-379 2024.5,-379"/>
<polyline fill="none" stroke="black" points="2024.5,-379 1711.5,-379 "/>
<path fill="none" stroke="black" d="M1711.5,-379C1705.5,-379 1699.5,-373 1699.5,-367"/>
<polyline fill="none" stroke="black" points="1699.5,-367 1699.5,-213 "/>
<path fill="none" stroke="black" d="M1699.5,-213C1699.5,-207 1705.5,-201 1711.5,-201"/>
<text text-anchor="middle" x="1868" y="-362.4" font-family="Times Roman,serif" font-size="14.00">RepoFile</text>
<polyline fill="none" stroke="black" points="1699.5,-353 2036.5,-353 "/>
<text text-anchor="start" x="1707.5" y="-336.4" font-family="Times Roman,serif" font-size="14.00">id :integer</text>
<text text-anchor="start" x="1707.5" y="-318.4" font-family="Times Roman,serif" font-size="14.00">repository_id :integer</text>
<text text-anchor="start" x="1707.5" y="-300.4" font-family="Times Roman,serif" font-size="14.00">created_at :timestamp without time zone</text>
<text text-anchor="start" x="1707.5" y="-282.4" font-family="Times Roman,serif" font-size="14.00">updated_at :timestamp without time zone</text>
<text text-anchor="start" x="1707.5" y="-264.4" font-family="Times Roman,serif" font-size="14.00">file_file_name :character varying</text>
<text text-anchor="start" x="1707.5" y="-246.4" font-family="Times Roman,serif" font-size="14.00">file_content_type :character varying</text>
<text text-anchor="start" x="1707.5" y="-228.4" font-family="Times Roman,serif" font-size="14.00">file_file_size :integer</text>
<text text-anchor="start" x="1707.5" y="-210.4" font-family="Times Roman,serif" font-size="14.00">file_updated_at :timestamp without time zone</text>
</g>
<!-- Repository&#45;&gt;RepoFile -->
<g id="edge6" class="edge"><title>Repository&#45;&gt;RepoFile</title>
<path fill="none" stroke="#907369" d="M1025.94,-464.574C1046.36,-453.263 1067.61,-443.328 1089,-436 1215.81,-392.55 1563.16,-438.31 1691,-398 1703.38,-394.097 1715.78,-389.15 1727.96,-383.532"/>
<ellipse fill="none" stroke="#907369" cx="1022.23" cy="-466.665" rx="4.00002" ry="4.00002"/>
<polygon fill="#907369" stroke="#907369" points="1728.2,-383.418 1739.16,-383.172 1732.71,-381.264 1737.22,-379.11 1737.22,-379.11 1737.22,-379.11 1732.71,-381.264 1735.28,-375.049 1728.2,-383.418 1728.2,-383.418"/>
</g>
<!-- Rfid -->
<g id="node14" class="node"><title>Rfid</title>
<polyline fill="none" stroke="black" points="1109.5,-518 1394.5,-518 "/>
<path fill="none" stroke="black" d="M1394.5,-518C1400.5,-518 1406.5,-524 1406.5,-530"/>
<polyline fill="none" stroke="black" points="1406.5,-530 1406.5,-648 "/>
<path fill="none" stroke="black" d="M1406.5,-648C1406.5,-654 1400.5,-660 1394.5,-660"/>
<polyline fill="none" stroke="black" points="1394.5,-660 1109.5,-660 "/>
<path fill="none" stroke="black" d="M1109.5,-660C1103.5,-660 1097.5,-654 1097.5,-648"/>
<polyline fill="none" stroke="black" points="1097.5,-648 1097.5,-530 "/>
<path fill="none" stroke="black" d="M1097.5,-530C1097.5,-524 1103.5,-518 1109.5,-518"/>
<text text-anchor="middle" x="1252" y="-643.4" font-family="Times Roman,serif" font-size="14.00">Rfid</text>
<polyline fill="none" stroke="black" points="1097.5,-634 1406.5,-634 "/>
<text text-anchor="start" x="1105.5" y="-617.4" font-family="Times Roman,serif" font-size="14.00">id :integer</text>
<text text-anchor="start" x="1105.5" y="-599.4" font-family="Times Roman,serif" font-size="14.00">user_id :integer</text>
<text text-anchor="start" x="1105.5" y="-581.4" font-family="Times Roman,serif" font-size="14.00">card_number :character varying</text>
<text text-anchor="start" x="1105.5" y="-563.4" font-family="Times Roman,serif" font-size="14.00">created_at :timestamp without time zone</text>
<text text-anchor="start" x="1105.5" y="-545.4" font-family="Times Roman,serif" font-size="14.00">updated_at :timestamp without time zone</text>
<text text-anchor="start" x="1105.5" y="-527.4" font-family="Times Roman,serif" font-size="14.00">mac_address :character varying</text>
</g>
<!-- User -->
<g id="node16" class="node"><title>User</title>
<polyline fill="none" stroke="black" points="450,-781 788,-781 "/>
<path fill="none" stroke="black" d="M788,-781C794,-781 800,-787 800,-793"/>
<polyline fill="none" stroke="black" points="800,-793 800,-1181 "/>
<path fill="none" stroke="black" d="M800,-1181C800,-1187 794,-1193 788,-1193"/>
<polyline fill="none" stroke="black" points="788,-1193 450,-1193 "/>
<path fill="none" stroke="black" d="M450,-1193C444,-1193 438,-1187 438,-1181"/>
<polyline fill="none" stroke="black" points="438,-1181 438,-793 "/>
<path fill="none" stroke="black" d="M438,-793C438,-787 444,-781 450,-781"/>
<text text-anchor="middle" x="619" y="-1176.4" font-family="Times Roman,serif" font-size="14.00">User</text>
<polyline fill="none" stroke="black" points="438,-1167 800,-1167 "/>
<text text-anchor="start" x="446" y="-1150.4" font-family="Times Roman,serif" font-size="14.00">id :integer</text>
<text text-anchor="start" x="446" y="-1132.4" font-family="Times Roman,serif" font-size="14.00">username :character varying</text>
<text text-anchor="start" x="446" y="-1114.4" font-family="Times Roman,serif" font-size="14.00">password :character varying</text>
<text text-anchor="start" x="446" y="-1096.4" font-family="Times Roman,serif" font-size="14.00">url :character varying</text>
<text text-anchor="start" x="446" y="-1078.4" font-family="Times Roman,serif" font-size="14.00">location :character varying</text>
<text text-anchor="start" x="446" y="-1060.4" font-family="Times Roman,serif" font-size="14.00">created_at :timestamp without time zone</text>
<text text-anchor="start" x="446" y="-1042.4" font-family="Times Roman,serif" font-size="14.00">updated_at :timestamp without time zone</text>
<text text-anchor="start" x="446" y="-1024.4" font-family="Times Roman,serif" font-size="14.00">description :text</text>
<text text-anchor="start" x="446" y="-1006.4" font-family="Times Roman,serif" font-size="14.00">email :character varying</text>
<text text-anchor="start" x="446" y="-988.4" font-family="Times Roman,serif" font-size="14.00">avatar_file_name :character varying</text>
<text text-anchor="start" x="446" y="-970.4" font-family="Times Roman,serif" font-size="14.00">avatar_content_type :character varying</text>
<text text-anchor="start" x="446" y="-952.4" font-family="Times Roman,serif" font-size="14.00">avatar_file_size :integer</text>
<text text-anchor="start" x="446" y="-934.4" font-family="Times Roman,serif" font-size="14.00">avatar_updated_at :timestamp without time zone</text>
<text text-anchor="start" x="446" y="-916.4" font-family="Times Roman,serif" font-size="14.00">access_token :character varying</text>
<text text-anchor="start" x="446" y="-898.4" font-family="Times Roman,serif" font-size="14.00">name :character varying</text>
<text text-anchor="start" x="446" y="-880.4" font-family="Times Roman,serif" font-size="14.00">gender :character varying</text>
<text text-anchor="start" x="446" y="-862.4" font-family="Times Roman,serif" font-size="14.00">faculty :character varying</text>
<text text-anchor="start" x="446" y="-844.4" font-family="Times Roman,serif" font-size="14.00">use :character varying</text>
<text text-anchor="start" x="446" y="-826.4" font-family="Times Roman,serif" font-size="14.00">reputation :integer</text>
<text text-anchor="start" x="446" y="-808.4" font-family="Times Roman,serif" font-size="14.00">role :character varying</text>
<text text-anchor="start" x="446" y="-790.4" font-family="Times Roman,serif" font-size="14.00">terms_and_conditions :boolean</text>
</g>
<!-- User&#45;&gt;Certification -->
<g id="edge26" class="edge"><title>User&#45;&gt;Certification</title>
<path fill="none" stroke="#f36fa4" d="M430.966,-781.079C430.312,-780.716 429.656,-780.356 429,-780 386.62,-756.989 364.699,-784.412 322,-762 275.647,-737.67 234.494,-695.833 204.521,-659.396"/>
<ellipse fill="none" stroke="#f36fa4" cx="434.467" cy="-783.089" rx="4.00002" ry="4.00002"/>
<polygon fill="#f36fa4" stroke="#f36fa4" points="204.204,-659.006 201.412,-648.401 201.059,-655.119 197.914,-651.232 197.914,-651.232 197.914,-651.232 201.059,-655.119 194.416,-654.062 204.204,-659.006 204.204,-659.006"/>
</g>
<!-- User&#45;&gt;Comment -->
<g id="edge22" class="edge"><title>User&#45;&gt;Comment</title>
<path fill="none" stroke="#9c7bf8" d="M431.535,-781.946C430.691,-781.293 429.846,-780.645 429,-780 399.596,-757.587 376.179,-772.304 355,-742 276.495,-629.67 376.521,-559.444 317,-436 308.667,-418.718 297.475,-402.224 285.002,-386.954"/>
<ellipse fill="none" stroke="#9c7bf8" cx="434.849" cy="-784.551" rx="4.00002" ry="4.00002"/>
<polygon fill="#9c7bf8" stroke="#9c7bf8" points="284.814,-386.731 281.813,-376.184 281.592,-382.907 278.371,-379.083 278.371,-379.083 278.371,-379.083 281.592,-382.907 274.929,-381.982 284.814,-386.731 284.814,-386.731"/>
</g>
<!-- User&#45;&gt;LabSession -->
<g id="edge28" class="edge"><title>User&#45;&gt;LabSession</title>
<path fill="none" stroke="#47c44a" d="M570.032,-772.832C562.485,-739.825 555.067,-707.379 548.613,-679.153"/>
<ellipse fill="none" stroke="#47c44a" cx="570.942" cy="-776.814" rx="4.00001" ry="4.00001"/>
<polygon fill="#47c44a" stroke="#47c44a" points="548.601,-679.099 550.758,-668.348 547.486,-674.225 546.372,-669.351 546.372,-669.351 546.372,-669.351 547.486,-674.225 541.985,-670.354 548.601,-679.099 548.601,-679.099"/>
</g>
<!-- User&#45;&gt;Repository -->
<g id="edge24" class="edge"><title>User&#45;&gt;Repository</title>
<path fill="none" stroke="#55f0c0" d="M750.222,-773.831C755.215,-765.721 760.188,-757.642 765.108,-749.649"/>
<ellipse fill="none" stroke="#55f0c0" cx="748.082" cy="-777.308" rx="4.00002" ry="4.00002"/>
<polygon fill="#55f0c0" stroke="#55f0c0" points="765.183,-749.528 774.257,-743.371 767.804,-745.27 770.425,-741.012 770.425,-741.012 770.425,-741.012 767.804,-745.27 766.593,-738.653 765.183,-749.528 765.183,-749.528"/>
</g>
<!-- User&#45;&gt;Rfid -->
<g id="edge18" class="edge"><title>User&#45;&gt;Rfid</title>
<path fill="none" stroke="#c3ae55" d="M807.361,-780.864C807.906,-780.574 808.453,-780.286 809,-780 920.304,-721.836 975.609,-795.983 1089,-742 1126.46,-724.166 1161.06,-694.549 1188.65,-666.098"/>
<ellipse fill="none" stroke="#c3ae55" cx="803.812" cy="-782.826" rx="4.00002" ry="4.00002"/>
<ellipse fill="#c3ae55" stroke="#c3ae55" cx="1191.67" cy="-662.941" rx="4.00002" ry="4.00002"/>
</g>
<!-- User&#45;&gt;Upvote -->
<g id="edge20" class="edge"><title>User&#45;&gt;Upvote</title>
<path fill="none" stroke="#522fc1" d="M807.331,-780.805C807.887,-780.534 808.443,-780.266 809,-780 869.883,-750.934 1350.18,-760.723 1415,-742 1721.49,-653.466 1882.21,-672.363 2045,-398 2093.99,-315.439 2104.47,-257.364 2045,-182 2008.24,-135.414 1866.36,-106.368 1749.77,-89.9062"/>
<ellipse fill="none" stroke="#522fc1" cx="803.724" cy="-782.643" rx="4.00002" ry="4.00002"/>
<polygon fill="#522fc1" stroke="#522fc1" points="1749.55,-89.8755 1740.26,-84.0416 1744.6,-89.1871 1739.64,-88.4987 1739.64,-88.4987 1739.64,-88.4987 1744.6,-89.1871 1739.02,-92.9559 1749.55,-89.8755 1749.55,-89.8755"/>
</g>
</g>
</svg>
