<?xml version="1.0" encoding="UTF-8" standalone="no"?>
<svg
   width="226.53362pt"
   height="63.741119pt"
   viewBox="0 0 226.53362 63.741119"
   version="1.1"
   id="svg5"
   xmlns="http://www.w3.org/2000/svg"
   xmlns:svg="http://www.w3.org/2000/svg">
  <defs
     id="defs5" />
  <path
     fill-rule="nonzero"
     fill="#ffffff"
     fill-opacity="1"
     d="M 63.045312,1.8877871 H 104.2836 V 14.231537 H 76.420312 v 11.3164 h 26.320318 v 12.34766 H 76.420312 v 12.34375 h 29.406248 v 12.34375 H 63.045312 Z m 0,0"
     id="path1" />
  <path
     fill-rule="nonzero"
     fill="#ffffff"
     fill-opacity="1"
     d="m 117.05703,1.8877871 h 41.23438 V 14.231537 h -27.86328 v 11.3164 h 26.32031 v 12.34766 h -26.32031 v 12.34375 h 29.40625 v 12.34375 h -42.77735 z m 0,0"
     id="path2" />
  <path
     fill-rule="nonzero"
     fill="#ffffff"
     fill-opacity="1"
     d="m 183.92422,50.239347 h 6.94531 c 3.08594,0 5.95703,-0.3125 8.61328,-0.94141 2.66016,-0.6289 4.96094,-1.67187 6.90235,-3.1289 1.94531,-1.45703 3.47265,-3.375 4.58594,-5.7461 1.11718,-2.37109 1.67187,-5.27343 1.67187,-8.69922 0,-2.97265 -0.55469,-5.55859 -1.67187,-7.76171 -1.11329,-2.19922 -2.61329,-4.01172 -4.5,-5.44141 -1.88282,-1.42969 -4.10157,-2.5 -6.64454,-3.21484 -2.54296,-0.71485 -5.21484,-1.07422 -8.01562,-1.07422 h -7.88672 z m -13.375,-48.3515599 h 20.0625 c 4.85547,0 9.47266,0.54297 13.84766,1.6289 4.37109,1.08594 8.18359,2.84375 11.4414,5.27344 3.26172,2.4296899 5.84375,5.5859399 7.76172,9.4726599 1.91406,3.88672 2.8711,8.60156 2.8711,14.14453 0,4.91797 -0.92969,9.24609 -2.78516,12.98828 -1.85938,3.74609 -4.35938,6.88672 -7.50391,9.42969 -3.14453,2.54687 -6.77343,4.47265 -10.88672,5.78906 -4.11328,1.3125 -8.42968,1.97266 -12.94531,1.97266 h -21.86328 z m 0,0"
     id="path3" />
  <path
     fill-rule="nonzero"
     fill="#e34626"
     fill-opacity="1"
     d="m 16.396882,21.762787 c 5.16797,-7.92578 15.64843,-10.7461 24.15625,-6.21875 l 9.125,-2.90235 -2.83985,-8.9140599 C 32.408602,-3.9481529 14.678132,0.62996712 5.6273511,13.790127 Z m 0,0"
     id="path4" />
  <path
     fill-rule="nonzero"
     fill="#ffffff"
     fill-opacity="1"
     d="m 45.842192,43.965907 c -0.41016,0.47266 -0.84766,0.92969 -1.30469,1.35938 l 0.008,0.004 c -5.61328,5.28125 -14.1875,6.6836 -21.35937,2.8711 -9.00391,-4.78907 -12.43359,-16.01172 -7.64453,-25.01563 0.26562,-0.49219 0.55078,-0.96484 0.84765,-1.42578 l -10.7656209,-7.96875 -1.89453,3.11328 c -8.25391,15.51563 -2.34375,34.85547 13.1718709,43.10938 13.63672,7.2539 30.22657,3.5664 39.64844,-7.96875 z m 0,0"
     id="path5" />
</svg>
