<?xml version="1.0" encoding="UTF-8" standalone="no"?>
<svg
   width="236.92085pt"
   height="64.569374pt"
   viewBox="0 0 236.92085 64.569374"
   version="1.1"
   id="svg5"
   xmlns="http://www.w3.org/2000/svg"
   xmlns:svg="http://www.w3.org/2000/svg">
  <defs
     id="defs5" />
  <path
     fill-rule="nonzero"
     fill="#e24827"
     fill-opacity="1"
     d="m 16.467726,21.858424 c 5.19141,-7.96093 15.71875,-10.79296 24.26953,-6.24609 l 9.16016,-2.91406 -2.85157,-8.9531305 C 32.553666,-3.9657865 14.745066,0.63186347 5.6513154,13.850614 Z m 0,0"
     id="path1" />
  <path
     fill-rule="nonzero"
     fill="#ffffff"
     fill-opacity="1"
     d="m 46.045846,44.159214 c -0.41406,0.47656 -0.85156,0.93359 -1.3125,1.36718 l 0.0117,0.004 c -5.64062,5.30469 -14.2539,6.71484 -21.45703,2.88281 -9.04297,-4.8125 -12.48828,-16.08203 -7.67578,-25.125 0.26172,-0.49609 0.55078,-0.97265 0.85156,-1.43359 l -10.8125006,-8.00391 -1.90625,3.125 c -8.28906,15.58594 -2.35547,35.01172 13.2304706,43.30469 13.69922,7.28516 30.35938,3.57812 39.82422,-8.00781 z m 0,0"
     id="path2" />
  <path
     fill-rule="nonzero"
     fill="#ffffff"
     fill-opacity="1"
     d="m 118.50679,58.678744 c -3.98437,2.07812 -8.14453,3.58203 -12.47265,4.5039 -4.33204,0.92578 -8.750004,1.38672 -13.253914,1.38672 -4.79297,0 -9.21094,-0.75 -13.25391,-2.25 -4.04297,-1.5039 -7.53515,-3.65234 -10.48047,-6.45312 -2.94531,-2.80078 -5.24218,-6.19532 -6.88671,-10.17969 -1.64844,-3.98438 -2.46875,-8.42969 -2.46875,-13.33984 0,-4.90625 0.82031,-9.35547 2.46875,-13.33985 1.64453,-3.98437 3.9414,-7.3789 6.88671,-10.1796905 2.94532,-2.80078 6.4375,-4.94921 10.48047,-6.45312 4.04297,-1.50000003 8.46094,-2.25000003 13.25391,-2.25000003 4.90625,0 9.425784,0.58984 13.554694,1.77344003 4.1289,1.18359 7.7539,3.22265 10.87109,6.10937 l -9.52734,10.3945305 c -1.84766,-1.90625 -3.92969,-3.35156 -6.23438,-4.33203 -2.312504,-0.98047 -5.199224,-1.47265 -8.664064,-1.47265 -2.89063,0 -5.5,0.49218 -7.83984,1.47265 -2.33985,0.98047 -4.34766,2.35156 -6.01954,4.11328 -1.67578,1.76172 -2.96093,3.85547 -3.85546,6.28125 -0.89454,2.42578 -1.34375,5.05469 -1.34375,7.88282 0,2.88671 0.44921,5.53125 1.34375,7.92578 0.89453,2.39843 2.17968,4.47656 3.85546,6.23828 1.67188,1.76172 3.67969,3.13281 6.01954,4.11328 2.33984,0.98047 4.94921,1.47266 7.83984,1.47266 2.94531,0 5.48437,-0.33204 7.621094,-0.9961 2.13672,-0.66406 3.83985,-1.34375 5.11328,-2.03515 v -9.96094 H 94.510696 v -12.47656 h 23.996094 z m 0,0"
     id="path3" />
  <path
     fill-rule="nonzero"
     fill="#ffffff"
     fill-opacity="1"
     d="m 130.89351,1.6826435 h 41.66797 V 14.155304 h -28.15625 v 11.43359 h 26.59375 v 12.47266 h -26.59375 v 12.47656 h 29.71484 v 12.47266 h -43.22656 z m 0,0"
     id="path4" />
  <path
     fill-rule="nonzero"
     fill="#ffffff"
     fill-opacity="1"
     d="m 225.05367,17.620144 c -1.33203,-1.61718 -2.96094,-2.85937 -4.89844,-3.72656 -1.93359,-0.86328 -4.17188,-1.29687 -6.71094,-1.29687 -2.54297,0 -4.89453,0.49218 -7.05859,1.47265 -2.16797,0.98047 -4.04297,2.35156 -5.63281,4.11328 -1.58594,1.76172 -2.82813,3.85547 -3.72266,6.28125 -0.89844,2.42578 -1.34375,5.05469 -1.34375,7.88282 0,2.88671 0.44531,5.53125 1.34375,7.92578 0.89453,2.39843 2.12109,4.47656 3.67969,6.23828 1.55859,1.76172 3.39453,3.13281 5.5039,4.11328 2.10547,0.98047 4.3711,1.47266 6.79688,1.47266 2.77344,0 5.22656,-0.57813 7.36328,-1.73438 2.13672,-1.15234 3.89844,-2.76953 5.28516,-4.85156 l 11.26171,8.40625 c -2.60156,3.63672 -5.89062,6.32031 -9.875,8.05469 -3.98828,1.73046 -8.08593,2.59765 -12.30078,2.59765 -4.79687,0 -9.21484,-0.75 -13.2539,-2.25 -4.04297,-1.5039 -7.53516,-3.65234 -10.48047,-6.45312 -2.94531,-2.80469 -5.24219,-6.19532 -6.88672,-10.17969 -1.64844,-3.98438 -2.46875,-8.42969 -2.46875,-13.33984 0,-4.91016 0.82031,-9.35547 2.46875,-13.33985 1.64453,-3.98437 3.94141,-7.3789 6.88672,-10.1796905 2.94531,-2.80078 6.4375,-4.94921 10.48047,-6.45312 4.03906,-1.50000003 8.45703,-2.25000003 13.2539,-2.25000003 1.73047,0 3.53516,0.15625 5.41016,0.47656 1.87891,0.31641 3.72656,0.82031003 5.54687,1.51563003 1.82032,0.6914 3.56641,1.61718 5.23829,2.76953 1.67578,1.15625 3.17578,2.57031 4.50781,4.24609 z m 0,0"
     id="path5" />
</svg>
